%TF.GenerationSoftware,KiCad,Pcbnew,8.0.3*%
%TF.CreationDate,2024-07-12T14:10:18+09:00*%
%TF.ProjectId,Unit-LD8035E,556e6974-2d4c-4443-9830-3335452e6b69,rev?*%
%TF.SameCoordinates,Original*%
%TF.FileFunction,Soldermask,Top*%
%TF.FilePolarity,Negative*%
%FSLAX46Y46*%
G04 Gerber Fmt 4.6, Leading zero omitted, Abs format (unit mm)*
G04 Created by KiCad (PCBNEW 8.0.3) date 2024-07-12 14:10:18*
%MOMM*%
%LPD*%
G01*
G04 APERTURE LIST*
G04 Aperture macros list*
%AMRoundRect*
0 Rectangle with rounded corners*
0 $1 Rounding radius*
0 $2 $3 $4 $5 $6 $7 $8 $9 X,Y pos of 4 corners*
0 Add a 4 corners polygon primitive as box body*
4,1,4,$2,$3,$4,$5,$6,$7,$8,$9,$2,$3,0*
0 Add four circle primitives for the rounded corners*
1,1,$1+$1,$2,$3*
1,1,$1+$1,$4,$5*
1,1,$1+$1,$6,$7*
1,1,$1+$1,$8,$9*
0 Add four rect primitives between the rounded corners*
20,1,$1+$1,$2,$3,$4,$5,0*
20,1,$1+$1,$4,$5,$6,$7,0*
20,1,$1+$1,$6,$7,$8,$9,0*
20,1,$1+$1,$8,$9,$2,$3,0*%
G04 Aperture macros list end*
%ADD10C,1.600000*%
%ADD11RoundRect,0.500000X-0.008000X0.750000X-0.008000X-0.750000X0.008000X-0.750000X0.008000X0.750000X0*%
%ADD12RoundRect,0.500000X0.008000X-0.750000X0.008000X0.750000X-0.008000X0.750000X-0.008000X-0.750000X0*%
%ADD13RoundRect,0.150000X-0.150000X0.725000X-0.150000X-0.725000X0.150000X-0.725000X0.150000X0.725000X0*%
%ADD14O,1.600000X1.600000*%
%ADD15RoundRect,0.250000X0.750000X-0.600000X0.750000X0.600000X-0.750000X0.600000X-0.750000X-0.600000X0*%
%ADD16O,2.000000X1.700000*%
%ADD17C,1.524000*%
%ADD18C,5.500000*%
G04 APERTURE END LIST*
D10*
%TO.C,V1*%
X137050000Y-96875000D03*
X138300000Y-98875000D03*
X140300000Y-100125000D03*
X142800000Y-100125000D03*
X144800000Y-98875000D03*
X146050000Y-96875000D03*
X146050000Y-94375000D03*
X144800000Y-92375000D03*
X142800000Y-91125000D03*
X140300000Y-91125000D03*
X138300000Y-92375000D03*
X137050000Y-94375000D03*
%TD*%
D11*
%TO.C,U3*%
X103360000Y-87285000D03*
X102090000Y-87285000D03*
X100820000Y-87285000D03*
X99550000Y-87285000D03*
X98280000Y-87285000D03*
X97010000Y-87285000D03*
X95740000Y-87285000D03*
X94470000Y-87285000D03*
X93200000Y-87285000D03*
X91930000Y-87285000D03*
X90660000Y-87285000D03*
X89390000Y-87285000D03*
X88120000Y-87285000D03*
X86850000Y-87285000D03*
X85580000Y-87285000D03*
X84310000Y-87285000D03*
X83040000Y-87285000D03*
D12*
X83040000Y-103925000D03*
X84310000Y-103925000D03*
X85580000Y-103925000D03*
X86850000Y-103925000D03*
X88120000Y-103925000D03*
X89390000Y-103925000D03*
X90660000Y-103925000D03*
X91930000Y-103925000D03*
X93200000Y-103925000D03*
X94470000Y-103925000D03*
X95740000Y-103925000D03*
%TD*%
D13*
%TO.C,U2*%
X131953000Y-89400000D03*
X130683000Y-89400000D03*
X129413000Y-89400000D03*
X128143000Y-89400000D03*
X126873000Y-89400000D03*
X125603000Y-89400000D03*
X124333000Y-89400000D03*
X123063000Y-89400000D03*
X121793000Y-89400000D03*
X121793000Y-98950000D03*
X123063000Y-98950000D03*
X124333000Y-98950000D03*
X125603000Y-98950000D03*
X126873000Y-98950000D03*
X128143000Y-98950000D03*
X129413000Y-98950000D03*
X130683000Y-98950000D03*
X131953000Y-98950000D03*
%TD*%
%TO.C,U1*%
X117475000Y-92964000D03*
X116205000Y-92964000D03*
X114935000Y-92964000D03*
X113665000Y-92964000D03*
X112395000Y-92964000D03*
X111125000Y-92964000D03*
X109855000Y-92964000D03*
X108585000Y-92964000D03*
X107315000Y-92964000D03*
X107315000Y-102514000D03*
X108585000Y-102514000D03*
X109855000Y-102514000D03*
X111125000Y-102514000D03*
X112395000Y-102514000D03*
X113665000Y-102514000D03*
X114935000Y-102514000D03*
X116205000Y-102514000D03*
X117475000Y-102514000D03*
%TD*%
D10*
%TO.C,R1*%
X155067000Y-103251000D03*
D14*
X147447000Y-103251000D03*
%TD*%
D15*
%TO.C,J2*%
X152637000Y-96850000D03*
D16*
X152637000Y-94350000D03*
%TD*%
D17*
%TO.C,J1*%
X166725000Y-98625000D03*
X166725000Y-96625000D03*
X166725000Y-94625000D03*
X166725000Y-92625000D03*
%TD*%
D18*
%TO.C,H1*%
X162052000Y-95631000D03*
%TD*%
M02*
