%TF.GenerationSoftware,KiCad,Pcbnew,8.0.3*%
%TF.CreationDate,2024-07-12T14:10:18+09:00*%
%TF.ProjectId,Unit-LD8035E,556e6974-2d4c-4443-9830-3335452e6b69,rev?*%
%TF.SameCoordinates,Original*%
%TF.FileFunction,Copper,L1,Top*%
%TF.FilePolarity,Positive*%
%FSLAX46Y46*%
G04 Gerber Fmt 4.6, Leading zero omitted, Abs format (unit mm)*
G04 Created by KiCad (PCBNEW 8.0.3) date 2024-07-12 14:10:18*
%MOMM*%
%LPD*%
G01*
G04 APERTURE LIST*
G04 Aperture macros list*
%AMRoundRect*
0 Rectangle with rounded corners*
0 $1 Rounding radius*
0 $2 $3 $4 $5 $6 $7 $8 $9 X,Y pos of 4 corners*
0 Add a 4 corners polygon primitive as box body*
4,1,4,$2,$3,$4,$5,$6,$7,$8,$9,$2,$3,0*
0 Add four circle primitives for the rounded corners*
1,1,$1+$1,$2,$3*
1,1,$1+$1,$4,$5*
1,1,$1+$1,$6,$7*
1,1,$1+$1,$8,$9*
0 Add four rect primitives between the rounded corners*
20,1,$1+$1,$2,$3,$4,$5,0*
20,1,$1+$1,$4,$5,$6,$7,0*
20,1,$1+$1,$6,$7,$8,$9,0*
20,1,$1+$1,$8,$9,$2,$3,0*%
G04 Aperture macros list end*
%TA.AperFunction,ComponentPad*%
%ADD10C,1.600000*%
%TD*%
%TA.AperFunction,ComponentPad*%
%ADD11RoundRect,0.500000X-0.008000X0.750000X-0.008000X-0.750000X0.008000X-0.750000X0.008000X0.750000X0*%
%TD*%
%TA.AperFunction,ComponentPad*%
%ADD12RoundRect,0.500000X0.008000X-0.750000X0.008000X0.750000X-0.008000X0.750000X-0.008000X-0.750000X0*%
%TD*%
%TA.AperFunction,SMDPad,CuDef*%
%ADD13RoundRect,0.150000X-0.150000X0.725000X-0.150000X-0.725000X0.150000X-0.725000X0.150000X0.725000X0*%
%TD*%
%TA.AperFunction,ComponentPad*%
%ADD14O,1.600000X1.600000*%
%TD*%
%TA.AperFunction,ComponentPad*%
%ADD15RoundRect,0.250000X0.750000X-0.600000X0.750000X0.600000X-0.750000X0.600000X-0.750000X-0.600000X0*%
%TD*%
%TA.AperFunction,ComponentPad*%
%ADD16O,2.000000X1.700000*%
%TD*%
%TA.AperFunction,ComponentPad*%
%ADD17C,1.524000*%
%TD*%
%TA.AperFunction,ViaPad*%
%ADD18C,0.600000*%
%TD*%
%TA.AperFunction,Conductor*%
%ADD19C,0.400000*%
%TD*%
%TA.AperFunction,Conductor*%
%ADD20C,0.200000*%
%TD*%
%TA.AperFunction,Conductor*%
%ADD21C,0.600000*%
%TD*%
G04 APERTURE END LIST*
D10*
%TO.P,V1,1,dp*%
%TO.N,Net-(U1-OUT1)*%
X137050000Y-96875000D03*
%TO.P,V1,2,GRID*%
%TO.N,Net-(U1-OUT2)*%
X138300000Y-98875000D03*
%TO.P,V1,3,filament*%
%TO.N,Net-(R1-Pad2)*%
X140300000Y-100125000D03*
%TO.P,V1,4,h*%
%TO.N,Net-(U1-OUT3)*%
X142800000Y-100125000D03*
%TO.P,V1,5,b*%
%TO.N,Net-(U1-OUT4)*%
X144800000Y-98875000D03*
%TO.P,V1,6,a*%
%TO.N,Net-(U1-OUT5)*%
X146050000Y-96875000D03*
%TO.P,V1,7,g*%
%TO.N,Net-(U2-OUT4)*%
X146050000Y-94375000D03*
%TO.P,V1,8,f*%
%TO.N,Net-(U2-OUT5)*%
X144800000Y-92375000D03*
%TO.P,V1,9,e*%
%TO.N,Net-(U2-OUT6)*%
X142800000Y-91125000D03*
%TO.P,V1,10,d*%
%TO.N,Net-(U2-OUT7)*%
X140300000Y-91125000D03*
%TO.P,V1,11,c*%
%TO.N,Net-(U2-OUT8)*%
X138300000Y-92375000D03*
%TO.P,V1,12,filament*%
%TO.N,GND*%
X137050000Y-94375000D03*
%TD*%
D11*
%TO.P,U3,1,G1*%
%TO.N,Net-(U2-IN4)*%
X103360000Y-87285000D03*
%TO.P,U3,2,G2*%
%TO.N,Net-(U2-IN5)*%
X102090000Y-87285000D03*
%TO.P,U3,3,G3*%
%TO.N,Net-(U2-IN6)*%
X100820000Y-87285000D03*
%TO.P,U3,4,G4*%
%TO.N,Net-(U2-IN7)*%
X99550000Y-87285000D03*
%TO.P,U3,5,G5*%
%TO.N,Net-(U2-IN8)*%
X98280000Y-87285000D03*
%TO.P,U3,6,G6*%
%TO.N,Net-(U1-IN1)*%
X97010000Y-87285000D03*
%TO.P,U3,7,G7*%
%TO.N,Net-(U1-IN2)*%
X95740000Y-87285000D03*
%TO.P,U3,8,G8*%
%TO.N,Net-(U1-IN3)*%
X94470000Y-87285000D03*
%TO.P,U3,9,G9*%
%TO.N,Net-(U1-IN4)*%
X93200000Y-87285000D03*
%TO.P,U3,10,G10*%
%TO.N,Net-(U1-IN5)*%
X91930000Y-87285000D03*
%TO.P,U3,11,GND*%
%TO.N,GND*%
X90660000Y-87285000D03*
%TO.P,U3,12,G11*%
%TO.N,unconnected-(U3-G11-Pad12)*%
X89390000Y-87285000D03*
%TO.P,U3,13,5V*%
%TO.N,+5V*%
X88120000Y-87285000D03*
%TO.P,U3,14,G12*%
%TO.N,unconnected-(U3-G12-Pad14)*%
X86850000Y-87285000D03*
%TO.P,U3,15,G13/SDA*%
%TO.N,Net-(J1-Pin_3)*%
X85580000Y-87285000D03*
%TO.P,U3,16,G14*%
%TO.N,unconnected-(U3-G14-Pad16)*%
X84310000Y-87285000D03*
%TO.P,U3,17,G15/SCL*%
%TO.N,Net-(J1-Pin_4)*%
X83040000Y-87285000D03*
D12*
%TO.P,U3,18,GND*%
%TO.N,GND*%
X83040000Y-103925000D03*
%TO.P,U3,19,G39*%
%TO.N,unconnected-(U3-G39-Pad19)*%
X84310000Y-103925000D03*
%TO.P,U3,20,G0*%
%TO.N,unconnected-(U3-G0-Pad20)*%
X85580000Y-103925000D03*
%TO.P,U3,21,G40*%
%TO.N,unconnected-(U3-G40-Pad21)*%
X86850000Y-103925000D03*
%TO.P,U3,22,EN*%
%TO.N,unconnected-(U3-EN-Pad22)*%
X88120000Y-103925000D03*
%TO.P,U3,23,G41*%
%TO.N,unconnected-(U3-G41-Pad23)*%
X89390000Y-103925000D03*
%TO.P,U3,24,G44*%
%TO.N,unconnected-(U3-G44-Pad24)*%
X90660000Y-103925000D03*
%TO.P,U3,25,G42*%
%TO.N,unconnected-(U3-G42-Pad25)*%
X91930000Y-103925000D03*
%TO.P,U3,26,G43*%
%TO.N,unconnected-(U3-G43-Pad26)*%
X93200000Y-103925000D03*
%TO.P,U3,27,G46*%
%TO.N,unconnected-(U3-G46-Pad27)*%
X94470000Y-103925000D03*
%TO.P,U3,28,3V3*%
%TO.N,unconnected-(U3-3V3-Pad28)*%
X95740000Y-103925000D03*
%TD*%
D13*
%TO.P,U2,1,IN1*%
%TO.N,unconnected-(U2-IN1-Pad1)*%
X131953000Y-89400000D03*
%TO.P,U2,2,IN2*%
%TO.N,unconnected-(U2-IN2-Pad2)*%
X130683000Y-89400000D03*
%TO.P,U2,3,IN3*%
%TO.N,unconnected-(U2-IN3-Pad3)*%
X129413000Y-89400000D03*
%TO.P,U2,4,IN4*%
%TO.N,Net-(U2-IN4)*%
X128143000Y-89400000D03*
%TO.P,U2,5,IN5*%
%TO.N,Net-(U2-IN5)*%
X126873000Y-89400000D03*
%TO.P,U2,6,IN6*%
%TO.N,Net-(U2-IN6)*%
X125603000Y-89400000D03*
%TO.P,U2,7,IN7*%
%TO.N,Net-(U2-IN7)*%
X124333000Y-89400000D03*
%TO.P,U2,8,IN8*%
%TO.N,Net-(U2-IN8)*%
X123063000Y-89400000D03*
%TO.P,U2,9,VCC*%
%TO.N,+12V*%
X121793000Y-89400000D03*
%TO.P,U2,10,GND*%
%TO.N,GND*%
X121793000Y-98950000D03*
%TO.P,U2,11,OUT8*%
%TO.N,Net-(U2-OUT8)*%
X123063000Y-98950000D03*
%TO.P,U2,12,OUT7*%
%TO.N,Net-(U2-OUT7)*%
X124333000Y-98950000D03*
%TO.P,U2,13,OUT6*%
%TO.N,Net-(U2-OUT6)*%
X125603000Y-98950000D03*
%TO.P,U2,14,OUT5*%
%TO.N,Net-(U2-OUT5)*%
X126873000Y-98950000D03*
%TO.P,U2,15,OUT4*%
%TO.N,Net-(U2-OUT4)*%
X128143000Y-98950000D03*
%TO.P,U2,16,OUT3*%
%TO.N,unconnected-(U2-OUT3-Pad16)*%
X129413000Y-98950000D03*
%TO.P,U2,17,OUT2*%
%TO.N,unconnected-(U2-OUT2-Pad17)*%
X130683000Y-98950000D03*
%TO.P,U2,18,OUT1*%
%TO.N,unconnected-(U2-OUT1-Pad18)*%
X131953000Y-98950000D03*
%TD*%
%TO.P,U1,1,IN1*%
%TO.N,Net-(U1-IN1)*%
X117475000Y-92964000D03*
%TO.P,U1,2,IN2*%
%TO.N,Net-(U1-IN2)*%
X116205000Y-92964000D03*
%TO.P,U1,3,IN3*%
%TO.N,Net-(U1-IN3)*%
X114935000Y-92964000D03*
%TO.P,U1,4,IN4*%
%TO.N,Net-(U1-IN4)*%
X113665000Y-92964000D03*
%TO.P,U1,5,IN5*%
%TO.N,Net-(U1-IN5)*%
X112395000Y-92964000D03*
%TO.P,U1,6,IN6*%
%TO.N,unconnected-(U1-IN6-Pad6)*%
X111125000Y-92964000D03*
%TO.P,U1,7,IN7*%
%TO.N,unconnected-(U1-IN7-Pad7)*%
X109855000Y-92964000D03*
%TO.P,U1,8,IN8*%
%TO.N,unconnected-(U1-IN8-Pad8)*%
X108585000Y-92964000D03*
%TO.P,U1,9,VCC*%
%TO.N,+12V*%
X107315000Y-92964000D03*
%TO.P,U1,10,GND*%
%TO.N,GND*%
X107315000Y-102514000D03*
%TO.P,U1,11,OUT8*%
%TO.N,unconnected-(U1-OUT8-Pad11)*%
X108585000Y-102514000D03*
%TO.P,U1,12,OUT7*%
%TO.N,unconnected-(U1-OUT7-Pad12)*%
X109855000Y-102514000D03*
%TO.P,U1,13,OUT6*%
%TO.N,unconnected-(U1-OUT6-Pad13)*%
X111125000Y-102514000D03*
%TO.P,U1,14,OUT5*%
%TO.N,Net-(U1-OUT5)*%
X112395000Y-102514000D03*
%TO.P,U1,15,OUT4*%
%TO.N,Net-(U1-OUT4)*%
X113665000Y-102514000D03*
%TO.P,U1,16,OUT3*%
%TO.N,Net-(U1-OUT3)*%
X114935000Y-102514000D03*
%TO.P,U1,17,OUT2*%
%TO.N,Net-(U1-OUT2)*%
X116205000Y-102514000D03*
%TO.P,U1,18,OUT1*%
%TO.N,Net-(U1-OUT1)*%
X117475000Y-102514000D03*
%TD*%
D10*
%TO.P,R1,1*%
%TO.N,+12V*%
X155067000Y-103251000D03*
D14*
%TO.P,R1,2*%
%TO.N,Net-(R1-Pad2)*%
X147447000Y-103251000D03*
%TD*%
D15*
%TO.P,J2,1,Pin_1*%
%TO.N,GND*%
X152637000Y-96850000D03*
D16*
%TO.P,J2,2,Pin_2*%
%TO.N,+12V*%
X152637000Y-94350000D03*
%TD*%
D17*
%TO.P,J1,1,Pin_1*%
%TO.N,GND*%
X166725000Y-98625000D03*
%TO.P,J1,2,Pin_2*%
%TO.N,+5V*%
X166725000Y-96625000D03*
%TO.P,J1,3,Pin_3*%
%TO.N,Net-(J1-Pin_3)*%
X166725000Y-94625000D03*
%TO.P,J1,4,Pin_4*%
%TO.N,Net-(J1-Pin_4)*%
X166725000Y-92625000D03*
%TD*%
D18*
%TO.N,*%
X110871000Y-115062000D03*
%TO.N,GND*%
X97409000Y-101600000D03*
X103251000Y-103124000D03*
X98044000Y-98171000D03*
X104648000Y-97917000D03*
X107696000Y-99822000D03*
X84963000Y-92075000D03*
X84963000Y-97790000D03*
X86868000Y-93472000D03*
X91313000Y-100457000D03*
X87757000Y-99949000D03*
X90932000Y-93726000D03*
X93345000Y-97155000D03*
X95250000Y-100838000D03*
X96647000Y-94107000D03*
X102235000Y-100965000D03*
X101981000Y-95377000D03*
X110236000Y-96520000D03*
X113030000Y-100076000D03*
X117221000Y-96520000D03*
X121666000Y-93599000D03*
X124079000Y-93345000D03*
X134747000Y-94615000D03*
X134239000Y-96901000D03*
X151384000Y-102870000D03*
X151892000Y-100584000D03*
X147066000Y-100965000D03*
X149225000Y-98679000D03*
X148971000Y-93472000D03*
X156718000Y-99568000D03*
%TO.N,+5V*%
X90424000Y-90424000D03*
%TO.N,Net-(J1-Pin_3)*%
X86741000Y-89535000D03*
X157607000Y-91694000D03*
%TO.N,+12V*%
X129667000Y-91313000D03*
%TO.N,Net-(U1-OUT1)*%
X131445000Y-102362000D03*
%TO.N,Net-(U1-OUT2)*%
X134112000Y-103124000D03*
%TO.N,Net-(U1-OUT1)*%
X117475000Y-101854000D03*
%TO.N,Net-(U1-OUT2)*%
X116205000Y-103124000D03*
%TO.N,Net-(U2-OUT4)*%
X138430000Y-88011000D03*
%TO.N,Net-(U2-OUT5)*%
X136144000Y-89027000D03*
%TO.N,Net-(U2-OUT6)*%
X133731000Y-90170000D03*
%TO.N,Net-(U2-OUT7)*%
X131318000Y-91186000D03*
%TO.N,Net-(U2-OUT8)*%
X129159000Y-92456000D03*
%TO.N,Net-(U1-IN5)*%
X112395000Y-92329000D03*
%TO.N,Net-(U1-IN4)*%
X113665000Y-92329000D03*
%TO.N,Net-(U1-IN3)*%
X114935000Y-92329000D03*
%TO.N,Net-(U1-IN2)*%
X116205000Y-92329000D03*
%TO.N,Net-(U1-IN1)*%
X117475000Y-92329000D03*
%TO.N,Net-(U2-IN8)*%
X123063000Y-88773000D03*
%TO.N,Net-(U2-IN7)*%
X124333000Y-88773000D03*
%TO.N,Net-(U2-IN6)*%
X125603000Y-88773000D03*
%TO.N,Net-(U2-IN5)*%
X126873000Y-88773000D03*
%TO.N,Net-(U2-IN4)*%
X128143000Y-88773000D03*
%TD*%
D19*
%TO.N,+5V*%
X147515767Y-87311000D02*
X120080000Y-87311000D01*
X158374800Y-99593400D02*
X158374800Y-98170033D01*
X163939700Y-99593400D02*
X158374800Y-99593400D01*
X166802800Y-96611400D02*
X166802800Y-96730300D01*
X166802800Y-96730300D02*
X163939700Y-99593400D01*
X158374800Y-98170033D02*
X147515767Y-87311000D01*
X120080000Y-87311000D02*
X118110000Y-89281000D01*
D20*
%TO.N,Net-(J1-Pin_4)*%
X116974314Y-88835000D02*
X83890000Y-88835000D01*
X119398314Y-86411000D02*
X116974314Y-88835000D01*
X83890000Y-88835000D02*
X83040000Y-87985000D01*
X148133000Y-86411000D02*
X119398314Y-86411000D01*
X152781000Y-91059000D02*
X148133000Y-86411000D01*
X158775400Y-91719400D02*
X158115000Y-91059000D01*
X165910800Y-91719400D02*
X158775400Y-91719400D01*
X158115000Y-91059000D02*
X152781000Y-91059000D01*
X166802800Y-92611400D02*
X165910800Y-91719400D01*
%TO.N,Net-(J1-Pin_3)*%
X116840000Y-89535000D02*
X119564000Y-86811000D01*
D21*
%TO.N,+5V*%
X116967000Y-90424000D02*
X118110000Y-89281000D01*
X90424000Y-90424000D02*
X116967000Y-90424000D01*
D20*
%TO.N,Net-(J1-Pin_3)*%
X116840000Y-89535000D02*
X86741000Y-89535000D01*
X147898000Y-86811000D02*
X119564000Y-86811000D01*
X152781000Y-91694000D02*
X147898000Y-86811000D01*
X157607000Y-91694000D02*
X152781000Y-91694000D01*
D21*
%TO.N,+12V*%
X108161606Y-94339000D02*
X107315000Y-93492394D01*
X117898394Y-94339000D02*
X108161606Y-94339000D01*
X107315000Y-93492394D02*
X107315000Y-92964000D01*
X121793000Y-90444394D02*
X117898394Y-94339000D01*
X121793000Y-89400000D02*
X121793000Y-90444394D01*
X123177606Y-91313000D02*
X121793000Y-89928394D01*
X121793000Y-89928394D02*
X121793000Y-89400000D01*
X129667000Y-91313000D02*
X123177606Y-91313000D01*
X155067000Y-96780000D02*
X152637000Y-94350000D01*
X155067000Y-103251000D02*
X155067000Y-96780000D01*
D19*
%TO.N,Net-(U1-OUT1)*%
X131445000Y-102480000D02*
X131436000Y-102489000D01*
X131445000Y-102362000D02*
X131445000Y-102480000D01*
X131563000Y-102362000D02*
X131445000Y-102362000D01*
%TO.N,Net-(U1-OUT2)*%
X134051000Y-103124000D02*
X134051000Y-103124000D01*
X134112000Y-103124000D02*
X134051000Y-103124000D01*
X134112000Y-103063000D02*
X134112000Y-103124000D01*
X138300000Y-98875000D02*
X134112000Y-103063000D01*
%TO.N,Net-(U1-OUT1)*%
X137050000Y-96875000D02*
X131563000Y-102362000D01*
%TO.N,Net-(U1-OUT5)*%
X146050000Y-99604898D02*
X146050000Y-96875000D01*
X114092001Y-105086000D02*
X140568898Y-105086000D01*
X112395000Y-102514000D02*
X112395000Y-103388999D01*
X112395000Y-103388999D02*
X114092001Y-105086000D01*
X140568898Y-105086000D02*
X146050000Y-99604898D01*
%TO.N,Net-(U1-OUT4)*%
X113665000Y-103388999D02*
X113665000Y-102514000D01*
X114762001Y-104486000D02*
X113665000Y-103388999D01*
X144800000Y-100006370D02*
X140320370Y-104486000D01*
X140320370Y-104486000D02*
X114762001Y-104486000D01*
X144800000Y-98875000D02*
X144800000Y-100006370D01*
%TO.N,Net-(U1-OUT3)*%
X114935000Y-103388999D02*
X115432001Y-103886000D01*
X114935000Y-102514000D02*
X114935000Y-103388999D01*
X115432001Y-103886000D02*
X139039000Y-103886000D01*
X139039000Y-103886000D02*
X142800000Y-100125000D01*
%TO.N,Net-(U2-OUT4)*%
X128143000Y-98298000D02*
X138430000Y-88011000D01*
X138430000Y-88011000D02*
X138303000Y-88138000D01*
%TO.N,Net-(U2-OUT5)*%
X126873000Y-98298000D02*
X136144000Y-89027000D01*
%TO.N,Net-(U2-OUT6)*%
X125603000Y-98298000D02*
X133731000Y-90170000D01*
%TO.N,Net-(U2-OUT7)*%
X131318000Y-91313000D02*
X131318000Y-91186000D01*
X124333000Y-98298000D02*
X131318000Y-91313000D01*
%TO.N,Net-(U2-OUT8)*%
X128905000Y-92456000D02*
X129159000Y-92456000D01*
X123063000Y-98298000D02*
X128905000Y-92456000D01*
%TD*%
%TA.AperFunction,Conductor*%
%TO.N,GND*%
G36*
X121154230Y-88031185D02*
G01*
X121199985Y-88083989D01*
X121209929Y-88153147D01*
X121180904Y-88216703D01*
X121174872Y-88223181D01*
X121124923Y-88273129D01*
X121124917Y-88273137D01*
X121041255Y-88414603D01*
X121041254Y-88414606D01*
X120995402Y-88572426D01*
X120995401Y-88572432D01*
X120992500Y-88609298D01*
X120992500Y-90061454D01*
X120972815Y-90128493D01*
X120956181Y-90149135D01*
X118487181Y-92618135D01*
X118425858Y-92651620D01*
X118356166Y-92646636D01*
X118300233Y-92604764D01*
X118275816Y-92539300D01*
X118275500Y-92530454D01*
X118275500Y-92380914D01*
X118276280Y-92367029D01*
X118280565Y-92329001D01*
X118280565Y-92328998D01*
X118276280Y-92290969D01*
X118275500Y-92277085D01*
X118275500Y-92173313D01*
X118275499Y-92173298D01*
X118272598Y-92136432D01*
X118272597Y-92136426D01*
X118226745Y-91978606D01*
X118226744Y-91978603D01*
X118226744Y-91978602D01*
X118143081Y-91837135D01*
X118143079Y-91837133D01*
X118143076Y-91837129D01*
X118026870Y-91720923D01*
X118026861Y-91720916D01*
X117885401Y-91637257D01*
X117878243Y-91634160D01*
X117878526Y-91633505D01*
X117858247Y-91624401D01*
X117824520Y-91603209D01*
X117654262Y-91543633D01*
X117654249Y-91543630D01*
X117475004Y-91523435D01*
X117474996Y-91523435D01*
X117295750Y-91543630D01*
X117295737Y-91543633D01*
X117125487Y-91603206D01*
X117125480Y-91603210D01*
X117125478Y-91603211D01*
X117091753Y-91624401D01*
X117091750Y-91624403D01*
X117071480Y-91633501D01*
X117071764Y-91634156D01*
X117064602Y-91637255D01*
X116923137Y-91720917D01*
X116916969Y-91725702D01*
X116915072Y-91723256D01*
X116866358Y-91749857D01*
X116796666Y-91744873D01*
X116764296Y-91724069D01*
X116763031Y-91725702D01*
X116756861Y-91720916D01*
X116615401Y-91637257D01*
X116608243Y-91634160D01*
X116608526Y-91633505D01*
X116588247Y-91624401D01*
X116554520Y-91603209D01*
X116384262Y-91543633D01*
X116384249Y-91543630D01*
X116205004Y-91523435D01*
X116204996Y-91523435D01*
X116025750Y-91543630D01*
X116025737Y-91543633D01*
X115855487Y-91603206D01*
X115855480Y-91603210D01*
X115855478Y-91603211D01*
X115821753Y-91624401D01*
X115821750Y-91624403D01*
X115801480Y-91633501D01*
X115801764Y-91634156D01*
X115794602Y-91637255D01*
X115653137Y-91720917D01*
X115646969Y-91725702D01*
X115645072Y-91723256D01*
X115596358Y-91749857D01*
X115526666Y-91744873D01*
X115494296Y-91724069D01*
X115493031Y-91725702D01*
X115486861Y-91720916D01*
X115345401Y-91637257D01*
X115338243Y-91634160D01*
X115338526Y-91633505D01*
X115318247Y-91624401D01*
X115284520Y-91603209D01*
X115114262Y-91543633D01*
X115114249Y-91543630D01*
X114935004Y-91523435D01*
X114934996Y-91523435D01*
X114755750Y-91543630D01*
X114755737Y-91543633D01*
X114585487Y-91603206D01*
X114585480Y-91603210D01*
X114585478Y-91603211D01*
X114551753Y-91624401D01*
X114551750Y-91624403D01*
X114531480Y-91633501D01*
X114531764Y-91634156D01*
X114524602Y-91637255D01*
X114383137Y-91720917D01*
X114376969Y-91725702D01*
X114375072Y-91723256D01*
X114326358Y-91749857D01*
X114256666Y-91744873D01*
X114224296Y-91724069D01*
X114223031Y-91725702D01*
X114216861Y-91720916D01*
X114075401Y-91637257D01*
X114068243Y-91634160D01*
X114068526Y-91633505D01*
X114048247Y-91624401D01*
X114014520Y-91603209D01*
X113844262Y-91543633D01*
X113844249Y-91543630D01*
X113665004Y-91523435D01*
X113664996Y-91523435D01*
X113485750Y-91543630D01*
X113485737Y-91543633D01*
X113315487Y-91603206D01*
X113315480Y-91603210D01*
X113315478Y-91603211D01*
X113281753Y-91624401D01*
X113281750Y-91624403D01*
X113261480Y-91633501D01*
X113261764Y-91634156D01*
X113254602Y-91637255D01*
X113113137Y-91720917D01*
X113106969Y-91725702D01*
X113105072Y-91723256D01*
X113056358Y-91749857D01*
X112986666Y-91744873D01*
X112954296Y-91724069D01*
X112953031Y-91725702D01*
X112946861Y-91720916D01*
X112805401Y-91637257D01*
X112798243Y-91634160D01*
X112798526Y-91633505D01*
X112778247Y-91624401D01*
X112744520Y-91603209D01*
X112574262Y-91543633D01*
X112574249Y-91543630D01*
X112395004Y-91523435D01*
X112394996Y-91523435D01*
X112215750Y-91543630D01*
X112215737Y-91543633D01*
X112045487Y-91603206D01*
X112045480Y-91603210D01*
X112045478Y-91603211D01*
X112011753Y-91624401D01*
X112011750Y-91624403D01*
X111991480Y-91633501D01*
X111991764Y-91634156D01*
X111984602Y-91637255D01*
X111843137Y-91720917D01*
X111836969Y-91725702D01*
X111835072Y-91723256D01*
X111786358Y-91749857D01*
X111716666Y-91744873D01*
X111684296Y-91724069D01*
X111683031Y-91725702D01*
X111676862Y-91720917D01*
X111598681Y-91674681D01*
X111535398Y-91637256D01*
X111535397Y-91637255D01*
X111535396Y-91637255D01*
X111535393Y-91637254D01*
X111377573Y-91591402D01*
X111377567Y-91591401D01*
X111340701Y-91588500D01*
X111340694Y-91588500D01*
X110909306Y-91588500D01*
X110909298Y-91588500D01*
X110872432Y-91591401D01*
X110872426Y-91591402D01*
X110714606Y-91637254D01*
X110714603Y-91637255D01*
X110573137Y-91720917D01*
X110566969Y-91725702D01*
X110565072Y-91723256D01*
X110516358Y-91749857D01*
X110446666Y-91744873D01*
X110414296Y-91724069D01*
X110413031Y-91725702D01*
X110406862Y-91720917D01*
X110328681Y-91674681D01*
X110265398Y-91637256D01*
X110265397Y-91637255D01*
X110265396Y-91637255D01*
X110265393Y-91637254D01*
X110107573Y-91591402D01*
X110107567Y-91591401D01*
X110070701Y-91588500D01*
X110070694Y-91588500D01*
X109639306Y-91588500D01*
X109639298Y-91588500D01*
X109602432Y-91591401D01*
X109602426Y-91591402D01*
X109444606Y-91637254D01*
X109444603Y-91637255D01*
X109303137Y-91720917D01*
X109296969Y-91725702D01*
X109295072Y-91723256D01*
X109246358Y-91749857D01*
X109176666Y-91744873D01*
X109144296Y-91724069D01*
X109143031Y-91725702D01*
X109136862Y-91720917D01*
X109058681Y-91674681D01*
X108995398Y-91637256D01*
X108995397Y-91637255D01*
X108995396Y-91637255D01*
X108995393Y-91637254D01*
X108837573Y-91591402D01*
X108837567Y-91591401D01*
X108800701Y-91588500D01*
X108800694Y-91588500D01*
X108369306Y-91588500D01*
X108369298Y-91588500D01*
X108332432Y-91591401D01*
X108332426Y-91591402D01*
X108174606Y-91637254D01*
X108174603Y-91637255D01*
X108033137Y-91720917D01*
X108026969Y-91725702D01*
X108025072Y-91723256D01*
X107976358Y-91749857D01*
X107906666Y-91744873D01*
X107874296Y-91724069D01*
X107873031Y-91725702D01*
X107866862Y-91720917D01*
X107788681Y-91674681D01*
X107725398Y-91637256D01*
X107725397Y-91637255D01*
X107725396Y-91637255D01*
X107725393Y-91637254D01*
X107567573Y-91591402D01*
X107567567Y-91591401D01*
X107530701Y-91588500D01*
X107530694Y-91588500D01*
X107099306Y-91588500D01*
X107099298Y-91588500D01*
X107062432Y-91591401D01*
X107062426Y-91591402D01*
X106904606Y-91637254D01*
X106904603Y-91637255D01*
X106763137Y-91720917D01*
X106763129Y-91720923D01*
X106646923Y-91837129D01*
X106646917Y-91837137D01*
X106563255Y-91978603D01*
X106563254Y-91978606D01*
X106517402Y-92136426D01*
X106517401Y-92136432D01*
X106514500Y-92173298D01*
X106514500Y-93754701D01*
X106517401Y-93791567D01*
X106517402Y-93791573D01*
X106563254Y-93949393D01*
X106563255Y-93949396D01*
X106646917Y-94090862D01*
X106646923Y-94090870D01*
X106763129Y-94207076D01*
X106763133Y-94207079D01*
X106763135Y-94207081D01*
X106904602Y-94290744D01*
X106982096Y-94313258D01*
X107035180Y-94344652D01*
X107651313Y-94960786D01*
X107651317Y-94960789D01*
X107782420Y-95048390D01*
X107782424Y-95048392D01*
X107782427Y-95048394D01*
X107928109Y-95108738D01*
X108082759Y-95139499D01*
X108082763Y-95139500D01*
X108082764Y-95139500D01*
X117977238Y-95139500D01*
X117977239Y-95139499D01*
X118131891Y-95108737D01*
X118244560Y-95062067D01*
X118277566Y-95048397D01*
X118277566Y-95048396D01*
X118277573Y-95048394D01*
X118408683Y-94960789D01*
X121963320Y-91406151D01*
X122024641Y-91372668D01*
X122094333Y-91377652D01*
X122138680Y-91406153D01*
X122667313Y-91934786D01*
X122667317Y-91934789D01*
X122798420Y-92022390D01*
X122798424Y-92022392D01*
X122798427Y-92022394D01*
X122944109Y-92082738D01*
X123098759Y-92113499D01*
X123098763Y-92113500D01*
X123098764Y-92113500D01*
X127957481Y-92113500D01*
X128024520Y-92133185D01*
X128070275Y-92185989D01*
X128080219Y-92255147D01*
X128051194Y-92318703D01*
X128045162Y-92325181D01*
X122808290Y-97562051D01*
X122755205Y-97593446D01*
X122652604Y-97623254D01*
X122652603Y-97623255D01*
X122511140Y-97706915D01*
X122504974Y-97711699D01*
X122503174Y-97709379D01*
X122453913Y-97736230D01*
X122384225Y-97731193D01*
X122351992Y-97710461D01*
X122350722Y-97712100D01*
X122344552Y-97707314D01*
X122203196Y-97623717D01*
X122203193Y-97623716D01*
X122045494Y-97577900D01*
X122045497Y-97577900D01*
X122043000Y-97577703D01*
X122043000Y-100322295D01*
X122043001Y-100322295D01*
X122045486Y-100322100D01*
X122203198Y-100276281D01*
X122344550Y-100192686D01*
X122350717Y-100187903D01*
X122352630Y-100190369D01*
X122401222Y-100163802D01*
X122470917Y-100168749D01*
X122503762Y-100189853D01*
X122504969Y-100188298D01*
X122511132Y-100193078D01*
X122511135Y-100193081D01*
X122652602Y-100276744D01*
X122694224Y-100288836D01*
X122810426Y-100322597D01*
X122810429Y-100322597D01*
X122810431Y-100322598D01*
X122847306Y-100325500D01*
X122847314Y-100325500D01*
X123278686Y-100325500D01*
X123278694Y-100325500D01*
X123315569Y-100322598D01*
X123315571Y-100322597D01*
X123315573Y-100322597D01*
X123357191Y-100310505D01*
X123473398Y-100276744D01*
X123614865Y-100193081D01*
X123614870Y-100193075D01*
X123621031Y-100188298D01*
X123622933Y-100190750D01*
X123671579Y-100164155D01*
X123741274Y-100169104D01*
X123773695Y-100189940D01*
X123774969Y-100188298D01*
X123781132Y-100193078D01*
X123781135Y-100193081D01*
X123922602Y-100276744D01*
X123964224Y-100288836D01*
X124080426Y-100322597D01*
X124080429Y-100322597D01*
X124080431Y-100322598D01*
X124117306Y-100325500D01*
X124117314Y-100325500D01*
X124548686Y-100325500D01*
X124548694Y-100325500D01*
X124585569Y-100322598D01*
X124585571Y-100322597D01*
X124585573Y-100322597D01*
X124627191Y-100310505D01*
X124743398Y-100276744D01*
X124884865Y-100193081D01*
X124884870Y-100193075D01*
X124891031Y-100188298D01*
X124892933Y-100190750D01*
X124941579Y-100164155D01*
X125011274Y-100169104D01*
X125043695Y-100189940D01*
X125044969Y-100188298D01*
X125051132Y-100193078D01*
X125051135Y-100193081D01*
X125192602Y-100276744D01*
X125234224Y-100288836D01*
X125350426Y-100322597D01*
X125350429Y-100322597D01*
X125350431Y-100322598D01*
X125387306Y-100325500D01*
X125387314Y-100325500D01*
X125818686Y-100325500D01*
X125818694Y-100325500D01*
X125855569Y-100322598D01*
X125855571Y-100322597D01*
X125855573Y-100322597D01*
X125897191Y-100310505D01*
X126013398Y-100276744D01*
X126154865Y-100193081D01*
X126154870Y-100193075D01*
X126161031Y-100188298D01*
X126162933Y-100190750D01*
X126211579Y-100164155D01*
X126281274Y-100169104D01*
X126313695Y-100189940D01*
X126314969Y-100188298D01*
X126321132Y-100193078D01*
X126321135Y-100193081D01*
X126462602Y-100276744D01*
X126504224Y-100288836D01*
X126620426Y-100322597D01*
X126620429Y-100322597D01*
X126620431Y-100322598D01*
X126657306Y-100325500D01*
X126657314Y-100325500D01*
X127088686Y-100325500D01*
X127088694Y-100325500D01*
X127125569Y-100322598D01*
X127125571Y-100322597D01*
X127125573Y-100322597D01*
X127167191Y-100310505D01*
X127283398Y-100276744D01*
X127424865Y-100193081D01*
X127424870Y-100193075D01*
X127431031Y-100188298D01*
X127432933Y-100190750D01*
X127481579Y-100164155D01*
X127551274Y-100169104D01*
X127583695Y-100189940D01*
X127584969Y-100188298D01*
X127591132Y-100193078D01*
X127591135Y-100193081D01*
X127732602Y-100276744D01*
X127774224Y-100288836D01*
X127890426Y-100322597D01*
X127890429Y-100322597D01*
X127890431Y-100322598D01*
X127927306Y-100325500D01*
X127927314Y-100325500D01*
X128358686Y-100325500D01*
X128358694Y-100325500D01*
X128395569Y-100322598D01*
X128395571Y-100322597D01*
X128395573Y-100322597D01*
X128437191Y-100310505D01*
X128553398Y-100276744D01*
X128694865Y-100193081D01*
X128694870Y-100193075D01*
X128701031Y-100188298D01*
X128702933Y-100190750D01*
X128751579Y-100164155D01*
X128821274Y-100169104D01*
X128853695Y-100189940D01*
X128854969Y-100188298D01*
X128861132Y-100193078D01*
X128861135Y-100193081D01*
X129002602Y-100276744D01*
X129044224Y-100288836D01*
X129160426Y-100322597D01*
X129160429Y-100322597D01*
X129160431Y-100322598D01*
X129197306Y-100325500D01*
X129197314Y-100325500D01*
X129628686Y-100325500D01*
X129628694Y-100325500D01*
X129665569Y-100322598D01*
X129665571Y-100322597D01*
X129665573Y-100322597D01*
X129707191Y-100310505D01*
X129823398Y-100276744D01*
X129964865Y-100193081D01*
X129964870Y-100193075D01*
X129971031Y-100188298D01*
X129972933Y-100190750D01*
X130021579Y-100164155D01*
X130091274Y-100169104D01*
X130123695Y-100189940D01*
X130124969Y-100188298D01*
X130131132Y-100193078D01*
X130131135Y-100193081D01*
X130272602Y-100276744D01*
X130314224Y-100288836D01*
X130430426Y-100322597D01*
X130430429Y-100322597D01*
X130430431Y-100322598D01*
X130467306Y-100325500D01*
X130467314Y-100325500D01*
X130898686Y-100325500D01*
X130898694Y-100325500D01*
X130935569Y-100322598D01*
X130935571Y-100322597D01*
X130935573Y-100322597D01*
X130977191Y-100310505D01*
X131093398Y-100276744D01*
X131234865Y-100193081D01*
X131234870Y-100193075D01*
X131241031Y-100188298D01*
X131242933Y-100190750D01*
X131291579Y-100164155D01*
X131361274Y-100169104D01*
X131393695Y-100189940D01*
X131394969Y-100188298D01*
X131401132Y-100193078D01*
X131401135Y-100193081D01*
X131542602Y-100276744D01*
X131584224Y-100288836D01*
X131700426Y-100322597D01*
X131700429Y-100322597D01*
X131700431Y-100322598D01*
X131737306Y-100325500D01*
X131737314Y-100325500D01*
X132168686Y-100325500D01*
X132168694Y-100325500D01*
X132205569Y-100322598D01*
X132314301Y-100291008D01*
X132384168Y-100291207D01*
X132442839Y-100329148D01*
X132471683Y-100392786D01*
X132461542Y-100461916D01*
X132436576Y-100497765D01*
X131400069Y-101534272D01*
X131338746Y-101567757D01*
X131326273Y-101569811D01*
X131265750Y-101576630D01*
X131095478Y-101636210D01*
X130942737Y-101732184D01*
X130815184Y-101859737D01*
X130719211Y-102012476D01*
X130659631Y-102182745D01*
X130659630Y-102182750D01*
X130639435Y-102361996D01*
X130639435Y-102362003D01*
X130659630Y-102541249D01*
X130659631Y-102541254D01*
X130719211Y-102711523D01*
X130815184Y-102864262D01*
X130924741Y-102973819D01*
X130958226Y-103035142D01*
X130953242Y-103104834D01*
X130911370Y-103160767D01*
X130845906Y-103185184D01*
X130837060Y-103185500D01*
X118399500Y-103185500D01*
X118332461Y-103165815D01*
X118286706Y-103113011D01*
X118275500Y-103061500D01*
X118275500Y-101905914D01*
X118276280Y-101892029D01*
X118280565Y-101854001D01*
X118280565Y-101853998D01*
X118276280Y-101815969D01*
X118275500Y-101802085D01*
X118275500Y-101723313D01*
X118275499Y-101723298D01*
X118272598Y-101686432D01*
X118272597Y-101686426D01*
X118226745Y-101528606D01*
X118226744Y-101528603D01*
X118226744Y-101528602D01*
X118143081Y-101387135D01*
X118143079Y-101387133D01*
X118143076Y-101387129D01*
X118026864Y-101270917D01*
X118020703Y-101266138D01*
X118021276Y-101265398D01*
X118008768Y-101255690D01*
X117977262Y-101224184D01*
X117824523Y-101128211D01*
X117654254Y-101068631D01*
X117654249Y-101068630D01*
X117475004Y-101048435D01*
X117474996Y-101048435D01*
X117295750Y-101068630D01*
X117295745Y-101068631D01*
X117125476Y-101128211D01*
X116972738Y-101224184D01*
X116972735Y-101224186D01*
X116941226Y-101255695D01*
X116928724Y-101265398D01*
X116929298Y-101266138D01*
X116916975Y-101275698D01*
X116915085Y-101273262D01*
X116866295Y-101299871D01*
X116796606Y-101294850D01*
X116764294Y-101274072D01*
X116763031Y-101275702D01*
X116756862Y-101270917D01*
X116677840Y-101224184D01*
X116615398Y-101187256D01*
X116615397Y-101187255D01*
X116615396Y-101187255D01*
X116615393Y-101187254D01*
X116457573Y-101141402D01*
X116457567Y-101141401D01*
X116420701Y-101138500D01*
X116420694Y-101138500D01*
X115989306Y-101138500D01*
X115989298Y-101138500D01*
X115952432Y-101141401D01*
X115952426Y-101141402D01*
X115794606Y-101187254D01*
X115794603Y-101187255D01*
X115653137Y-101270917D01*
X115646969Y-101275702D01*
X115645072Y-101273256D01*
X115596358Y-101299857D01*
X115526666Y-101294873D01*
X115494296Y-101274069D01*
X115493031Y-101275702D01*
X115486862Y-101270917D01*
X115407840Y-101224184D01*
X115345398Y-101187256D01*
X115345397Y-101187255D01*
X115345396Y-101187255D01*
X115345393Y-101187254D01*
X115187573Y-101141402D01*
X115187567Y-101141401D01*
X115150701Y-101138500D01*
X115150694Y-101138500D01*
X114719306Y-101138500D01*
X114719298Y-101138500D01*
X114682432Y-101141401D01*
X114682426Y-101141402D01*
X114524606Y-101187254D01*
X114524603Y-101187255D01*
X114383137Y-101270917D01*
X114376969Y-101275702D01*
X114375072Y-101273256D01*
X114326358Y-101299857D01*
X114256666Y-101294873D01*
X114224296Y-101274069D01*
X114223031Y-101275702D01*
X114216862Y-101270917D01*
X114137840Y-101224184D01*
X114075398Y-101187256D01*
X114075397Y-101187255D01*
X114075396Y-101187255D01*
X114075393Y-101187254D01*
X113917573Y-101141402D01*
X113917567Y-101141401D01*
X113880701Y-101138500D01*
X113880694Y-101138500D01*
X113449306Y-101138500D01*
X113449298Y-101138500D01*
X113412432Y-101141401D01*
X113412426Y-101141402D01*
X113254606Y-101187254D01*
X113254603Y-101187255D01*
X113113137Y-101270917D01*
X113106969Y-101275702D01*
X113105072Y-101273256D01*
X113056358Y-101299857D01*
X112986666Y-101294873D01*
X112954296Y-101274069D01*
X112953031Y-101275702D01*
X112946862Y-101270917D01*
X112867840Y-101224184D01*
X112805398Y-101187256D01*
X112805397Y-101187255D01*
X112805396Y-101187255D01*
X112805393Y-101187254D01*
X112647573Y-101141402D01*
X112647567Y-101141401D01*
X112610701Y-101138500D01*
X112610694Y-101138500D01*
X112179306Y-101138500D01*
X112179298Y-101138500D01*
X112142432Y-101141401D01*
X112142426Y-101141402D01*
X111984606Y-101187254D01*
X111984603Y-101187255D01*
X111843137Y-101270917D01*
X111836969Y-101275702D01*
X111835072Y-101273256D01*
X111786358Y-101299857D01*
X111716666Y-101294873D01*
X111684296Y-101274069D01*
X111683031Y-101275702D01*
X111676862Y-101270917D01*
X111597840Y-101224184D01*
X111535398Y-101187256D01*
X111535397Y-101187255D01*
X111535396Y-101187255D01*
X111535393Y-101187254D01*
X111377573Y-101141402D01*
X111377567Y-101141401D01*
X111340701Y-101138500D01*
X111340694Y-101138500D01*
X110909306Y-101138500D01*
X110909298Y-101138500D01*
X110872432Y-101141401D01*
X110872426Y-101141402D01*
X110714606Y-101187254D01*
X110714603Y-101187255D01*
X110573137Y-101270917D01*
X110566969Y-101275702D01*
X110565072Y-101273256D01*
X110516358Y-101299857D01*
X110446666Y-101294873D01*
X110414296Y-101274069D01*
X110413031Y-101275702D01*
X110406862Y-101270917D01*
X110327840Y-101224184D01*
X110265398Y-101187256D01*
X110265397Y-101187255D01*
X110265396Y-101187255D01*
X110265393Y-101187254D01*
X110107573Y-101141402D01*
X110107567Y-101141401D01*
X110070701Y-101138500D01*
X110070694Y-101138500D01*
X109639306Y-101138500D01*
X109639298Y-101138500D01*
X109602432Y-101141401D01*
X109602426Y-101141402D01*
X109444606Y-101187254D01*
X109444603Y-101187255D01*
X109303137Y-101270917D01*
X109296969Y-101275702D01*
X109295072Y-101273256D01*
X109246358Y-101299857D01*
X109176666Y-101294873D01*
X109144296Y-101274069D01*
X109143031Y-101275702D01*
X109136862Y-101270917D01*
X109057840Y-101224184D01*
X108995398Y-101187256D01*
X108995397Y-101187255D01*
X108995396Y-101187255D01*
X108995393Y-101187254D01*
X108837573Y-101141402D01*
X108837567Y-101141401D01*
X108800701Y-101138500D01*
X108800694Y-101138500D01*
X108369306Y-101138500D01*
X108369298Y-101138500D01*
X108332432Y-101141401D01*
X108332426Y-101141402D01*
X108174606Y-101187254D01*
X108174603Y-101187255D01*
X108033140Y-101270915D01*
X108026974Y-101275699D01*
X108025174Y-101273379D01*
X107975913Y-101300230D01*
X107906225Y-101295193D01*
X107873992Y-101274461D01*
X107872722Y-101276100D01*
X107866552Y-101271314D01*
X107725196Y-101187717D01*
X107725193Y-101187716D01*
X107567494Y-101141900D01*
X107567497Y-101141900D01*
X107565000Y-101141703D01*
X107565000Y-103886295D01*
X107565001Y-103886295D01*
X107567486Y-103886100D01*
X107725198Y-103840281D01*
X107866550Y-103756686D01*
X107872717Y-103751903D01*
X107874630Y-103754369D01*
X107923222Y-103727802D01*
X107992917Y-103732749D01*
X108025762Y-103753853D01*
X108026969Y-103752298D01*
X108033132Y-103757078D01*
X108033135Y-103757081D01*
X108174602Y-103840744D01*
X108216224Y-103852836D01*
X108332426Y-103886597D01*
X108332429Y-103886597D01*
X108332431Y-103886598D01*
X108369306Y-103889500D01*
X108369314Y-103889500D01*
X108800686Y-103889500D01*
X108800694Y-103889500D01*
X108837569Y-103886598D01*
X108837571Y-103886597D01*
X108837573Y-103886597D01*
X108879191Y-103874505D01*
X108995398Y-103840744D01*
X109136865Y-103757081D01*
X109136870Y-103757075D01*
X109143031Y-103752298D01*
X109144933Y-103754750D01*
X109193579Y-103728155D01*
X109263274Y-103733104D01*
X109295695Y-103753940D01*
X109296969Y-103752298D01*
X109303132Y-103757078D01*
X109303135Y-103757081D01*
X109444602Y-103840744D01*
X109486224Y-103852836D01*
X109602426Y-103886597D01*
X109602429Y-103886597D01*
X109602431Y-103886598D01*
X109639306Y-103889500D01*
X109639314Y-103889500D01*
X110070686Y-103889500D01*
X110070694Y-103889500D01*
X110107569Y-103886598D01*
X110107571Y-103886597D01*
X110107573Y-103886597D01*
X110149191Y-103874505D01*
X110265398Y-103840744D01*
X110406865Y-103757081D01*
X110406870Y-103757075D01*
X110413031Y-103752298D01*
X110414933Y-103754750D01*
X110463579Y-103728155D01*
X110533274Y-103733104D01*
X110565695Y-103753940D01*
X110566969Y-103752298D01*
X110573132Y-103757078D01*
X110573135Y-103757081D01*
X110714602Y-103840744D01*
X110756224Y-103852836D01*
X110872426Y-103886597D01*
X110872429Y-103886597D01*
X110872431Y-103886598D01*
X110909306Y-103889500D01*
X110909314Y-103889500D01*
X111340686Y-103889500D01*
X111340694Y-103889500D01*
X111377569Y-103886598D01*
X111377571Y-103886597D01*
X111377573Y-103886597D01*
X111419191Y-103874505D01*
X111535398Y-103840744D01*
X111663002Y-103765279D01*
X111730724Y-103748097D01*
X111796986Y-103770257D01*
X111829224Y-103803122D01*
X111850887Y-103835544D01*
X111850888Y-103835545D01*
X113213663Y-105198319D01*
X113247148Y-105259642D01*
X113242164Y-105329334D01*
X113200292Y-105385267D01*
X113134828Y-105409684D01*
X113125982Y-105410000D01*
X96697512Y-105410000D01*
X96630473Y-105390315D01*
X96584718Y-105337511D01*
X96574774Y-105268353D01*
X96587603Y-105228589D01*
X96603415Y-105198319D01*
X96681909Y-105048049D01*
X96737886Y-104852418D01*
X96748500Y-104733037D01*
X96748499Y-103304649D01*
X106515000Y-103304649D01*
X106517899Y-103341489D01*
X106517900Y-103341495D01*
X106563716Y-103499193D01*
X106563717Y-103499196D01*
X106647314Y-103640552D01*
X106647321Y-103640561D01*
X106763438Y-103756678D01*
X106763447Y-103756685D01*
X106904801Y-103840281D01*
X107062514Y-103886100D01*
X107062511Y-103886100D01*
X107064998Y-103886295D01*
X107065000Y-103886295D01*
X107065000Y-102764000D01*
X106515000Y-102764000D01*
X106515000Y-103304649D01*
X96748499Y-103304649D01*
X96748499Y-103116964D01*
X96737886Y-102997582D01*
X96681909Y-102801951D01*
X96587698Y-102621593D01*
X96483810Y-102494184D01*
X96459109Y-102463890D01*
X96334153Y-102362003D01*
X96301407Y-102335302D01*
X96121049Y-102241091D01*
X96121048Y-102241090D01*
X96121045Y-102241089D01*
X96003829Y-102207550D01*
X95925418Y-102185114D01*
X95925415Y-102185113D01*
X95925413Y-102185113D01*
X95859102Y-102179217D01*
X95806037Y-102174500D01*
X95806032Y-102174500D01*
X95673972Y-102174500D01*
X95673964Y-102174501D01*
X95554584Y-102185113D01*
X95358954Y-102241089D01*
X95178587Y-102335305D01*
X95173340Y-102338764D01*
X95171755Y-102336359D01*
X95118663Y-102358557D01*
X95049863Y-102346379D01*
X95037062Y-102338152D01*
X95036660Y-102338764D01*
X95031412Y-102335305D01*
X95031408Y-102335303D01*
X95031407Y-102335302D01*
X94851049Y-102241091D01*
X94851048Y-102241090D01*
X94851045Y-102241089D01*
X94733829Y-102207550D01*
X94655418Y-102185114D01*
X94655415Y-102185113D01*
X94655413Y-102185113D01*
X94589102Y-102179217D01*
X94536037Y-102174500D01*
X94536032Y-102174500D01*
X94403972Y-102174500D01*
X94403964Y-102174501D01*
X94284584Y-102185113D01*
X94088954Y-102241089D01*
X93908587Y-102335305D01*
X93903340Y-102338764D01*
X93901755Y-102336359D01*
X93848663Y-102358557D01*
X93779863Y-102346379D01*
X93767062Y-102338152D01*
X93766660Y-102338764D01*
X93761412Y-102335305D01*
X93761408Y-102335303D01*
X93761407Y-102335302D01*
X93581049Y-102241091D01*
X93581048Y-102241090D01*
X93581045Y-102241089D01*
X93463829Y-102207550D01*
X93385418Y-102185114D01*
X93385415Y-102185113D01*
X93385413Y-102185113D01*
X93319102Y-102179217D01*
X93266037Y-102174500D01*
X93266032Y-102174500D01*
X93133972Y-102174500D01*
X93133964Y-102174501D01*
X93014584Y-102185113D01*
X92818954Y-102241089D01*
X92638587Y-102335305D01*
X92633340Y-102338764D01*
X92631755Y-102336359D01*
X92578663Y-102358557D01*
X92509863Y-102346379D01*
X92497062Y-102338152D01*
X92496660Y-102338764D01*
X92491412Y-102335305D01*
X92491408Y-102335303D01*
X92491407Y-102335302D01*
X92311049Y-102241091D01*
X92311048Y-102241090D01*
X92311045Y-102241089D01*
X92193829Y-102207550D01*
X92115418Y-102185114D01*
X92115415Y-102185113D01*
X92115413Y-102185113D01*
X92049102Y-102179217D01*
X91996037Y-102174500D01*
X91996032Y-102174500D01*
X91863972Y-102174500D01*
X91863964Y-102174501D01*
X91744584Y-102185113D01*
X91548954Y-102241089D01*
X91368587Y-102335305D01*
X91363340Y-102338764D01*
X91361755Y-102336359D01*
X91308663Y-102358557D01*
X91239863Y-102346379D01*
X91227062Y-102338152D01*
X91226660Y-102338764D01*
X91221412Y-102335305D01*
X91221408Y-102335303D01*
X91221407Y-102335302D01*
X91041049Y-102241091D01*
X91041048Y-102241090D01*
X91041045Y-102241089D01*
X90923829Y-102207550D01*
X90845418Y-102185114D01*
X90845415Y-102185113D01*
X90845413Y-102185113D01*
X90779102Y-102179217D01*
X90726037Y-102174500D01*
X90726032Y-102174500D01*
X90593972Y-102174500D01*
X90593964Y-102174501D01*
X90474584Y-102185113D01*
X90278954Y-102241089D01*
X90098587Y-102335305D01*
X90093340Y-102338764D01*
X90091755Y-102336359D01*
X90038663Y-102358557D01*
X89969863Y-102346379D01*
X89957062Y-102338152D01*
X89956660Y-102338764D01*
X89951412Y-102335305D01*
X89951408Y-102335303D01*
X89951407Y-102335302D01*
X89771049Y-102241091D01*
X89771048Y-102241090D01*
X89771045Y-102241089D01*
X89653829Y-102207550D01*
X89575418Y-102185114D01*
X89575415Y-102185113D01*
X89575413Y-102185113D01*
X89509102Y-102179217D01*
X89456037Y-102174500D01*
X89456032Y-102174500D01*
X89323972Y-102174500D01*
X89323964Y-102174501D01*
X89204584Y-102185113D01*
X89008954Y-102241089D01*
X88828587Y-102335305D01*
X88823340Y-102338764D01*
X88821755Y-102336359D01*
X88768663Y-102358557D01*
X88699863Y-102346379D01*
X88687062Y-102338152D01*
X88686660Y-102338764D01*
X88681412Y-102335305D01*
X88681408Y-102335303D01*
X88681407Y-102335302D01*
X88501049Y-102241091D01*
X88501048Y-102241090D01*
X88501045Y-102241089D01*
X88383829Y-102207550D01*
X88305418Y-102185114D01*
X88305415Y-102185113D01*
X88305413Y-102185113D01*
X88239102Y-102179217D01*
X88186037Y-102174500D01*
X88186032Y-102174500D01*
X88053972Y-102174500D01*
X88053964Y-102174501D01*
X87934584Y-102185113D01*
X87738954Y-102241089D01*
X87558587Y-102335305D01*
X87553340Y-102338764D01*
X87551755Y-102336359D01*
X87498663Y-102358557D01*
X87429863Y-102346379D01*
X87417062Y-102338152D01*
X87416660Y-102338764D01*
X87411412Y-102335305D01*
X87411408Y-102335303D01*
X87411407Y-102335302D01*
X87231049Y-102241091D01*
X87231048Y-102241090D01*
X87231045Y-102241089D01*
X87113829Y-102207550D01*
X87035418Y-102185114D01*
X87035415Y-102185113D01*
X87035413Y-102185113D01*
X86969102Y-102179217D01*
X86916037Y-102174500D01*
X86916032Y-102174500D01*
X86783972Y-102174500D01*
X86783964Y-102174501D01*
X86664584Y-102185113D01*
X86468954Y-102241089D01*
X86288587Y-102335305D01*
X86283340Y-102338764D01*
X86281755Y-102336359D01*
X86228663Y-102358557D01*
X86159863Y-102346379D01*
X86147062Y-102338152D01*
X86146660Y-102338764D01*
X86141412Y-102335305D01*
X86141408Y-102335303D01*
X86141407Y-102335302D01*
X85961049Y-102241091D01*
X85961048Y-102241090D01*
X85961045Y-102241089D01*
X85843829Y-102207550D01*
X85765418Y-102185114D01*
X85765415Y-102185113D01*
X85765413Y-102185113D01*
X85699102Y-102179217D01*
X85646037Y-102174500D01*
X85646032Y-102174500D01*
X85513972Y-102174500D01*
X85513964Y-102174501D01*
X85394584Y-102185113D01*
X85198954Y-102241089D01*
X85018587Y-102335305D01*
X85013340Y-102338764D01*
X85011755Y-102336359D01*
X84958663Y-102358557D01*
X84889863Y-102346379D01*
X84877062Y-102338152D01*
X84876660Y-102338764D01*
X84871412Y-102335305D01*
X84871408Y-102335303D01*
X84871407Y-102335302D01*
X84691049Y-102241091D01*
X84691048Y-102241090D01*
X84691045Y-102241089D01*
X84573829Y-102207550D01*
X84495418Y-102185114D01*
X84495415Y-102185113D01*
X84495413Y-102185113D01*
X84429102Y-102179217D01*
X84376037Y-102174500D01*
X84376032Y-102174500D01*
X84243972Y-102174500D01*
X84243964Y-102174501D01*
X84124584Y-102185113D01*
X83928954Y-102241089D01*
X83748587Y-102335305D01*
X83743345Y-102338761D01*
X83741825Y-102336455D01*
X83688427Y-102358863D01*
X83619611Y-102346775D01*
X83606370Y-102339175D01*
X83601134Y-102335724D01*
X83420860Y-102241557D01*
X83290000Y-102204113D01*
X83290000Y-102936184D01*
X83273940Y-102920124D01*
X83187061Y-102869964D01*
X83090160Y-102844000D01*
X82989840Y-102844000D01*
X82892939Y-102869964D01*
X82806060Y-102920124D01*
X82790000Y-102936184D01*
X82790000Y-102204113D01*
X82789999Y-102204113D01*
X82708111Y-102227544D01*
X82638243Y-102227061D01*
X82579728Y-102188881D01*
X82551143Y-102125126D01*
X82550000Y-102108328D01*
X82550000Y-101723350D01*
X106515000Y-101723350D01*
X106515000Y-102264000D01*
X107065000Y-102264000D01*
X107065000Y-101141703D01*
X107062503Y-101141900D01*
X106904806Y-101187716D01*
X106904803Y-101187717D01*
X106763447Y-101271314D01*
X106763438Y-101271321D01*
X106647321Y-101387438D01*
X106647314Y-101387447D01*
X106563717Y-101528803D01*
X106563716Y-101528806D01*
X106517900Y-101686504D01*
X106517899Y-101686510D01*
X106515000Y-101723350D01*
X82550000Y-101723350D01*
X82550000Y-99740649D01*
X120993000Y-99740649D01*
X120995899Y-99777489D01*
X120995900Y-99777495D01*
X121041716Y-99935193D01*
X121041717Y-99935196D01*
X121125314Y-100076552D01*
X121125321Y-100076561D01*
X121241438Y-100192678D01*
X121241447Y-100192685D01*
X121382801Y-100276281D01*
X121540514Y-100322100D01*
X121540511Y-100322100D01*
X121542998Y-100322295D01*
X121543000Y-100322295D01*
X121543000Y-99200000D01*
X120993000Y-99200000D01*
X120993000Y-99740649D01*
X82550000Y-99740649D01*
X82550000Y-98159350D01*
X120993000Y-98159350D01*
X120993000Y-98700000D01*
X121543000Y-98700000D01*
X121543000Y-97577703D01*
X121540503Y-97577900D01*
X121382806Y-97623716D01*
X121382803Y-97623717D01*
X121241447Y-97707314D01*
X121241438Y-97707321D01*
X121125321Y-97823438D01*
X121125314Y-97823447D01*
X121041717Y-97964803D01*
X121041716Y-97964806D01*
X120995900Y-98122504D01*
X120995899Y-98122510D01*
X120993000Y-98159350D01*
X82550000Y-98159350D01*
X82550000Y-89102191D01*
X82569685Y-89035152D01*
X82622489Y-88989397D01*
X82691647Y-88979453D01*
X82708102Y-88982972D01*
X82854582Y-89024886D01*
X82973963Y-89035500D01*
X83106036Y-89035499D01*
X83172526Y-89029588D01*
X83241040Y-89043257D01*
X83271183Y-89065418D01*
X83521284Y-89315520D01*
X83521286Y-89315521D01*
X83521290Y-89315524D01*
X83658209Y-89394573D01*
X83658216Y-89394577D01*
X83810943Y-89435501D01*
X83810945Y-89435501D01*
X83976654Y-89435501D01*
X83976670Y-89435500D01*
X85813411Y-89435500D01*
X85880450Y-89455185D01*
X85926205Y-89507989D01*
X85936631Y-89545617D01*
X85955630Y-89714249D01*
X85955631Y-89714254D01*
X86015211Y-89884523D01*
X86084271Y-89994431D01*
X86111184Y-90037262D01*
X86238738Y-90164816D01*
X86391478Y-90260789D01*
X86561745Y-90320368D01*
X86561750Y-90320369D01*
X86740996Y-90340565D01*
X86741000Y-90340565D01*
X86741004Y-90340565D01*
X86920249Y-90320369D01*
X86920252Y-90320368D01*
X86920255Y-90320368D01*
X87090522Y-90260789D01*
X87243262Y-90164816D01*
X87243267Y-90164810D01*
X87246097Y-90162555D01*
X87248275Y-90161665D01*
X87249158Y-90161111D01*
X87249255Y-90161265D01*
X87310783Y-90136145D01*
X87323412Y-90135500D01*
X89512185Y-90135500D01*
X89579224Y-90155185D01*
X89624979Y-90207989D01*
X89635404Y-90273392D01*
X89632889Y-90295700D01*
X89631288Y-90305994D01*
X89623500Y-90345152D01*
X89623500Y-90372085D01*
X89622720Y-90385969D01*
X89618435Y-90423998D01*
X89618435Y-90424001D01*
X89622720Y-90462029D01*
X89623500Y-90475914D01*
X89623500Y-90502844D01*
X89631288Y-90542003D01*
X89632890Y-90552303D01*
X89635840Y-90578480D01*
X89638183Y-90599273D01*
X89638632Y-90603252D01*
X89638633Y-90603260D01*
X89646976Y-90627104D01*
X89651550Y-90643860D01*
X89654262Y-90657496D01*
X89674509Y-90706377D01*
X89676988Y-90712872D01*
X89698212Y-90773524D01*
X89704709Y-90783865D01*
X89714268Y-90802365D01*
X89714603Y-90803173D01*
X89714605Y-90803179D01*
X89751223Y-90857982D01*
X89753114Y-90860900D01*
X89794180Y-90926257D01*
X89794182Y-90926260D01*
X89794184Y-90926262D01*
X89921738Y-91053816D01*
X89987131Y-91094905D01*
X89990040Y-91096790D01*
X90044821Y-91133394D01*
X90045606Y-91133719D01*
X90064134Y-91143289D01*
X90074478Y-91149789D01*
X90135175Y-91171028D01*
X90141607Y-91173484D01*
X90163333Y-91182483D01*
X90190497Y-91193735D01*
X90190498Y-91193735D01*
X90190503Y-91193737D01*
X90204139Y-91196449D01*
X90220898Y-91201023D01*
X90244745Y-91209368D01*
X90295714Y-91215110D01*
X90305992Y-91216709D01*
X90333140Y-91222109D01*
X90345157Y-91224500D01*
X90345158Y-91224500D01*
X90372085Y-91224500D01*
X90385969Y-91225280D01*
X90423998Y-91229565D01*
X90424000Y-91229565D01*
X90424002Y-91229565D01*
X90462031Y-91225280D01*
X90475915Y-91224500D01*
X117045844Y-91224500D01*
X117045845Y-91224499D01*
X117200497Y-91193737D01*
X117322281Y-91143293D01*
X117346172Y-91133397D01*
X117346172Y-91133396D01*
X117346179Y-91133394D01*
X117477289Y-91045789D01*
X118731789Y-89791289D01*
X118819393Y-89660179D01*
X118879192Y-89515810D01*
X118906069Y-89475586D01*
X120333838Y-88047819D01*
X120395161Y-88014334D01*
X120421519Y-88011500D01*
X121087191Y-88011500D01*
X121154230Y-88031185D01*
G37*
%TD.AperFunction*%
%TA.AperFunction,Conductor*%
G36*
X147241287Y-88031185D02*
G01*
X147261929Y-88047819D01*
X152085117Y-92871007D01*
X152118602Y-92932330D01*
X152113618Y-93002022D01*
X152071746Y-93057955D01*
X152035755Y-93076619D01*
X151968583Y-93098444D01*
X151779179Y-93194951D01*
X151607213Y-93319890D01*
X151456890Y-93470213D01*
X151331951Y-93642179D01*
X151235444Y-93831585D01*
X151169753Y-94033760D01*
X151151611Y-94148308D01*
X151136500Y-94243713D01*
X151136500Y-94456287D01*
X151169754Y-94666243D01*
X151220199Y-94821497D01*
X151235444Y-94868414D01*
X151331951Y-95057820D01*
X151456890Y-95229786D01*
X151596068Y-95368964D01*
X151629553Y-95430287D01*
X151624569Y-95499979D01*
X151582697Y-95555912D01*
X151573484Y-95562183D01*
X151418659Y-95657680D01*
X151418655Y-95657683D01*
X151294684Y-95781654D01*
X151202643Y-95930875D01*
X151202641Y-95930880D01*
X151147494Y-96097302D01*
X151147493Y-96097309D01*
X151137000Y-96200013D01*
X151137000Y-96600000D01*
X152203988Y-96600000D01*
X152171075Y-96657007D01*
X152137000Y-96784174D01*
X152137000Y-96915826D01*
X152171075Y-97042993D01*
X152203988Y-97100000D01*
X151137001Y-97100000D01*
X151137001Y-97499986D01*
X151147494Y-97602697D01*
X151202641Y-97769119D01*
X151202643Y-97769124D01*
X151294684Y-97918345D01*
X151418654Y-98042315D01*
X151567875Y-98134356D01*
X151567880Y-98134358D01*
X151734302Y-98189505D01*
X151734309Y-98189506D01*
X151837019Y-98199999D01*
X152386999Y-98199999D01*
X152387000Y-98199998D01*
X152387000Y-97283012D01*
X152444007Y-97315925D01*
X152571174Y-97350000D01*
X152702826Y-97350000D01*
X152829993Y-97315925D01*
X152887000Y-97283012D01*
X152887000Y-98199999D01*
X153436972Y-98199999D01*
X153436986Y-98199998D01*
X153539697Y-98189505D01*
X153706119Y-98134358D01*
X153706124Y-98134356D01*
X153855345Y-98042315D01*
X153979315Y-97918345D01*
X154036961Y-97824887D01*
X154088909Y-97778163D01*
X154157872Y-97766940D01*
X154221954Y-97794784D01*
X154260810Y-97852852D01*
X154266500Y-97889984D01*
X154266500Y-102160951D01*
X154246815Y-102227990D01*
X154230181Y-102248632D01*
X154066954Y-102411858D01*
X153936432Y-102598265D01*
X153936431Y-102598267D01*
X153840261Y-102804502D01*
X153840258Y-102804511D01*
X153781366Y-103024302D01*
X153781364Y-103024313D01*
X153761532Y-103250998D01*
X153761532Y-103251001D01*
X153781364Y-103477686D01*
X153781366Y-103477697D01*
X153840258Y-103697488D01*
X153840261Y-103697497D01*
X153936431Y-103903732D01*
X153936432Y-103903734D01*
X154066954Y-104090141D01*
X154227858Y-104251045D01*
X154227861Y-104251047D01*
X154414266Y-104381568D01*
X154620504Y-104477739D01*
X154840308Y-104536635D01*
X155002230Y-104550801D01*
X155066998Y-104556468D01*
X155067000Y-104556468D01*
X155067002Y-104556468D01*
X155123673Y-104551509D01*
X155293692Y-104536635D01*
X155513496Y-104477739D01*
X155719734Y-104381568D01*
X155906139Y-104251047D01*
X156067047Y-104090139D01*
X156197568Y-103903734D01*
X156293739Y-103697496D01*
X156352635Y-103477692D01*
X156372468Y-103251000D01*
X156352635Y-103024308D01*
X156293739Y-102804504D01*
X156197568Y-102598266D01*
X156067047Y-102411861D01*
X156067045Y-102411858D01*
X155903819Y-102248632D01*
X155870334Y-102187309D01*
X155867500Y-102160951D01*
X155867500Y-96952752D01*
X155887185Y-96885713D01*
X155939989Y-96839958D01*
X156009147Y-96830014D01*
X156072703Y-96859039D01*
X156079181Y-96865071D01*
X157443681Y-98229571D01*
X157477166Y-98290894D01*
X157480000Y-98317252D01*
X157480000Y-104088638D01*
X157460315Y-104155677D01*
X157443681Y-104176319D01*
X156246319Y-105373681D01*
X156184996Y-105407166D01*
X156158638Y-105410000D01*
X141534917Y-105410000D01*
X141467878Y-105390315D01*
X141422123Y-105337511D01*
X141412179Y-105268353D01*
X141441204Y-105204797D01*
X141447236Y-105198319D01*
X143394557Y-103250998D01*
X146141532Y-103250998D01*
X146141532Y-103251001D01*
X146161364Y-103477686D01*
X146161366Y-103477697D01*
X146220258Y-103697488D01*
X146220261Y-103697497D01*
X146316431Y-103903732D01*
X146316432Y-103903734D01*
X146446954Y-104090141D01*
X146607858Y-104251045D01*
X146607861Y-104251047D01*
X146794266Y-104381568D01*
X147000504Y-104477739D01*
X147220308Y-104536635D01*
X147382230Y-104550801D01*
X147446998Y-104556468D01*
X147447000Y-104556468D01*
X147447002Y-104556468D01*
X147503673Y-104551509D01*
X147673692Y-104536635D01*
X147893496Y-104477739D01*
X148099734Y-104381568D01*
X148286139Y-104251047D01*
X148447047Y-104090139D01*
X148577568Y-103903734D01*
X148673739Y-103697496D01*
X148732635Y-103477692D01*
X148752468Y-103251000D01*
X148732635Y-103024308D01*
X148673739Y-102804504D01*
X148577568Y-102598266D01*
X148447047Y-102411861D01*
X148447045Y-102411858D01*
X148286141Y-102250954D01*
X148099734Y-102120432D01*
X148099732Y-102120431D01*
X147893497Y-102024261D01*
X147893488Y-102024258D01*
X147673697Y-101965366D01*
X147673693Y-101965365D01*
X147673692Y-101965365D01*
X147673691Y-101965364D01*
X147673686Y-101965364D01*
X147447002Y-101945532D01*
X147446998Y-101945532D01*
X147220313Y-101965364D01*
X147220302Y-101965366D01*
X147000511Y-102024258D01*
X147000502Y-102024261D01*
X146794267Y-102120431D01*
X146794265Y-102120432D01*
X146607858Y-102250954D01*
X146446954Y-102411858D01*
X146316432Y-102598265D01*
X146316431Y-102598267D01*
X146220261Y-102804502D01*
X146220258Y-102804511D01*
X146161366Y-103024302D01*
X146161364Y-103024313D01*
X146141532Y-103250998D01*
X143394557Y-103250998D01*
X146594112Y-100051443D01*
X146594114Y-100051441D01*
X146670775Y-99936709D01*
X146673662Y-99929741D01*
X146723578Y-99809230D01*
X146723580Y-99809226D01*
X146750500Y-99673892D01*
X146750500Y-99535904D01*
X146750500Y-98036672D01*
X146770185Y-97969633D01*
X146803375Y-97935098D01*
X146889139Y-97875047D01*
X147050047Y-97714139D01*
X147180568Y-97527734D01*
X147276739Y-97321496D01*
X147335635Y-97101692D01*
X147355468Y-96875000D01*
X147335635Y-96648308D01*
X147276739Y-96428504D01*
X147180568Y-96222266D01*
X147050047Y-96035861D01*
X147050045Y-96035858D01*
X146889141Y-95874954D01*
X146702734Y-95744432D01*
X146702728Y-95744429D01*
X146687614Y-95737381D01*
X146635176Y-95691211D01*
X146616023Y-95624018D01*
X146636238Y-95557136D01*
X146687614Y-95512618D01*
X146702734Y-95505568D01*
X146889139Y-95375047D01*
X147050047Y-95214139D01*
X147180568Y-95027734D01*
X147276739Y-94821496D01*
X147335635Y-94601692D01*
X147355468Y-94375000D01*
X147335635Y-94148308D01*
X147276739Y-93928504D01*
X147180568Y-93722266D01*
X147050047Y-93535861D01*
X147050045Y-93535858D01*
X146889141Y-93374954D01*
X146702734Y-93244432D01*
X146702732Y-93244431D01*
X146496497Y-93148261D01*
X146496488Y-93148258D01*
X146276697Y-93089366D01*
X146276687Y-93089364D01*
X146092938Y-93073288D01*
X146027870Y-93047835D01*
X145986891Y-92991244D01*
X145983013Y-92921482D01*
X145991359Y-92897367D01*
X146026739Y-92821496D01*
X146085635Y-92601692D01*
X146104951Y-92380914D01*
X146105468Y-92375001D01*
X146105468Y-92374998D01*
X146098116Y-92290969D01*
X146085635Y-92148308D01*
X146026739Y-91928504D01*
X145930568Y-91722266D01*
X145800047Y-91535861D01*
X145800045Y-91535858D01*
X145639141Y-91374954D01*
X145452734Y-91244432D01*
X145452732Y-91244431D01*
X145246497Y-91148261D01*
X145246488Y-91148258D01*
X145026697Y-91089366D01*
X145026693Y-91089365D01*
X145026692Y-91089365D01*
X145026691Y-91089364D01*
X145026686Y-91089364D01*
X144800002Y-91069532D01*
X144799998Y-91069532D01*
X144573313Y-91089364D01*
X144573302Y-91089366D01*
X144353511Y-91148258D01*
X144353497Y-91148263D01*
X144277643Y-91183635D01*
X144208566Y-91194127D01*
X144144782Y-91165607D01*
X144106543Y-91107130D01*
X144101711Y-91082060D01*
X144085635Y-90898308D01*
X144034208Y-90706377D01*
X144026741Y-90678511D01*
X144026738Y-90678502D01*
X144006600Y-90635317D01*
X143930568Y-90472266D01*
X143800047Y-90285861D01*
X143800045Y-90285858D01*
X143639141Y-90124954D01*
X143452734Y-89994432D01*
X143452732Y-89994431D01*
X143246497Y-89898261D01*
X143246488Y-89898258D01*
X143026697Y-89839366D01*
X143026693Y-89839365D01*
X143026692Y-89839365D01*
X143026691Y-89839364D01*
X143026686Y-89839364D01*
X142800002Y-89819532D01*
X142799998Y-89819532D01*
X142573313Y-89839364D01*
X142573302Y-89839366D01*
X142353511Y-89898258D01*
X142353502Y-89898261D01*
X142147267Y-89994431D01*
X142147265Y-89994432D01*
X141960858Y-90124954D01*
X141799954Y-90285858D01*
X141669433Y-90472264D01*
X141669432Y-90472266D01*
X141662380Y-90487387D01*
X141616209Y-90539825D01*
X141549015Y-90558976D01*
X141482134Y-90538760D01*
X141437619Y-90487387D01*
X141430568Y-90472266D01*
X141300047Y-90285861D01*
X141300045Y-90285858D01*
X141139141Y-90124954D01*
X140952734Y-89994432D01*
X140952732Y-89994431D01*
X140746497Y-89898261D01*
X140746488Y-89898258D01*
X140526697Y-89839366D01*
X140526693Y-89839365D01*
X140526692Y-89839365D01*
X140526691Y-89839364D01*
X140526686Y-89839364D01*
X140300002Y-89819532D01*
X140299998Y-89819532D01*
X140073313Y-89839364D01*
X140073302Y-89839366D01*
X139853511Y-89898258D01*
X139853502Y-89898261D01*
X139647267Y-89994431D01*
X139647265Y-89994432D01*
X139460858Y-90124954D01*
X139299954Y-90285858D01*
X139169432Y-90472265D01*
X139169431Y-90472267D01*
X139073261Y-90678502D01*
X139073258Y-90678511D01*
X139014366Y-90898302D01*
X139014364Y-90898312D01*
X138998288Y-91082061D01*
X138972835Y-91147129D01*
X138916244Y-91188108D01*
X138846482Y-91191986D01*
X138822355Y-91183635D01*
X138819885Y-91182483D01*
X138746496Y-91148261D01*
X138746492Y-91148260D01*
X138746488Y-91148258D01*
X138526697Y-91089366D01*
X138526693Y-91089365D01*
X138526692Y-91089365D01*
X138526691Y-91089364D01*
X138526686Y-91089364D01*
X138300002Y-91069532D01*
X138299998Y-91069532D01*
X138073313Y-91089364D01*
X138073302Y-91089366D01*
X137853511Y-91148258D01*
X137853502Y-91148261D01*
X137647267Y-91244431D01*
X137647265Y-91244432D01*
X137460858Y-91374954D01*
X137299954Y-91535858D01*
X137169432Y-91722265D01*
X137169431Y-91722267D01*
X137073261Y-91928502D01*
X137073258Y-91928511D01*
X137014366Y-92148302D01*
X137014364Y-92148313D01*
X136994532Y-92374998D01*
X136994532Y-92375001D01*
X137014364Y-92601686D01*
X137014366Y-92601697D01*
X137073258Y-92821488D01*
X137073261Y-92821497D01*
X137093116Y-92864076D01*
X137108634Y-92897354D01*
X137108860Y-92897837D01*
X137119352Y-92966914D01*
X137090833Y-93030698D01*
X137032356Y-93068938D01*
X137007286Y-93073770D01*
X136823399Y-93089858D01*
X136823389Y-93089860D01*
X136603682Y-93148730D01*
X136603673Y-93148734D01*
X136397516Y-93244866D01*
X136397512Y-93244868D01*
X136324526Y-93295973D01*
X136324526Y-93295974D01*
X137003553Y-93975000D01*
X136997339Y-93975000D01*
X136895606Y-94002259D01*
X136804394Y-94054920D01*
X136729920Y-94129394D01*
X136677259Y-94220606D01*
X136650000Y-94322339D01*
X136650000Y-94328552D01*
X135970974Y-93649526D01*
X135970973Y-93649526D01*
X135919868Y-93722512D01*
X135919866Y-93722516D01*
X135823734Y-93928673D01*
X135823730Y-93928682D01*
X135764860Y-94148389D01*
X135764858Y-94148400D01*
X135745034Y-94374997D01*
X135745034Y-94375002D01*
X135764858Y-94601599D01*
X135764860Y-94601610D01*
X135823730Y-94821317D01*
X135823735Y-94821331D01*
X135919863Y-95027478D01*
X135970974Y-95100472D01*
X136650000Y-94421446D01*
X136650000Y-94427661D01*
X136677259Y-94529394D01*
X136729920Y-94620606D01*
X136804394Y-94695080D01*
X136895606Y-94747741D01*
X136997339Y-94775000D01*
X137003553Y-94775000D01*
X136324526Y-95454025D01*
X136397513Y-95505132D01*
X136397515Y-95505133D01*
X136412973Y-95512341D01*
X136465413Y-95558513D01*
X136484566Y-95625706D01*
X136464351Y-95692587D01*
X136412979Y-95737104D01*
X136397270Y-95744429D01*
X136397265Y-95744432D01*
X136210858Y-95874954D01*
X136049954Y-96035858D01*
X135919432Y-96222265D01*
X135919431Y-96222267D01*
X135823261Y-96428502D01*
X135823258Y-96428511D01*
X135764366Y-96648302D01*
X135764364Y-96648313D01*
X135744532Y-96874998D01*
X135744532Y-96875001D01*
X135764819Y-97106881D01*
X135751052Y-97175381D01*
X135728972Y-97205369D01*
X132925765Y-100008576D01*
X132864442Y-100042061D01*
X132794750Y-100037077D01*
X132738817Y-99995205D01*
X132714400Y-99929741D01*
X132719007Y-99886302D01*
X132750598Y-99777569D01*
X132753500Y-99740694D01*
X132753500Y-98159306D01*
X132750598Y-98122431D01*
X132725682Y-98036672D01*
X132704745Y-97964606D01*
X132704744Y-97964603D01*
X132704744Y-97964602D01*
X132621081Y-97823135D01*
X132621079Y-97823133D01*
X132621076Y-97823129D01*
X132504870Y-97706923D01*
X132504862Y-97706917D01*
X132405219Y-97647989D01*
X132363398Y-97623256D01*
X132363397Y-97623255D01*
X132363396Y-97623255D01*
X132363393Y-97623254D01*
X132205573Y-97577402D01*
X132205567Y-97577401D01*
X132168701Y-97574500D01*
X132168694Y-97574500D01*
X131737306Y-97574500D01*
X131737298Y-97574500D01*
X131700432Y-97577401D01*
X131700426Y-97577402D01*
X131542606Y-97623254D01*
X131542603Y-97623255D01*
X131401137Y-97706917D01*
X131394969Y-97711702D01*
X131393072Y-97709256D01*
X131344358Y-97735857D01*
X131274666Y-97730873D01*
X131242296Y-97710069D01*
X131241031Y-97711702D01*
X131234862Y-97706917D01*
X131135219Y-97647989D01*
X131093398Y-97623256D01*
X131093397Y-97623255D01*
X131093396Y-97623255D01*
X131093393Y-97623254D01*
X130935573Y-97577402D01*
X130935567Y-97577401D01*
X130898701Y-97574500D01*
X130898694Y-97574500D01*
X130467306Y-97574500D01*
X130467298Y-97574500D01*
X130430432Y-97577401D01*
X130430426Y-97577402D01*
X130272606Y-97623254D01*
X130272603Y-97623255D01*
X130131137Y-97706917D01*
X130124969Y-97711702D01*
X130123072Y-97709256D01*
X130074358Y-97735857D01*
X130004666Y-97730873D01*
X129972296Y-97710069D01*
X129971031Y-97711702D01*
X129964868Y-97706922D01*
X129964865Y-97706919D01*
X129951571Y-97699057D01*
X129903888Y-97647989D01*
X129891384Y-97579247D01*
X129918029Y-97514658D01*
X129927002Y-97504653D01*
X138629290Y-88802365D01*
X138676013Y-88773007D01*
X138779522Y-88736789D01*
X138932262Y-88640816D01*
X139059816Y-88513262D01*
X139155789Y-88360522D01*
X139215368Y-88190255D01*
X139218551Y-88162011D01*
X139223102Y-88121617D01*
X139250168Y-88057203D01*
X139307763Y-88017648D01*
X139346322Y-88011500D01*
X147174248Y-88011500D01*
X147241287Y-88031185D01*
G37*
%TD.AperFunction*%
%TA.AperFunction,Conductor*%
G36*
X83290000Y-104051000D02*
G01*
X83270315Y-104118039D01*
X83217511Y-104163794D01*
X83166000Y-104175000D01*
X82914000Y-104175000D01*
X82846961Y-104155315D01*
X82801206Y-104102511D01*
X82790000Y-104051000D01*
X82790000Y-103513816D01*
X82806060Y-103529876D01*
X82892939Y-103580036D01*
X82989840Y-103606000D01*
X83090160Y-103606000D01*
X83187061Y-103580036D01*
X83273940Y-103529876D01*
X83290000Y-103513816D01*
X83290000Y-104051000D01*
G37*
%TD.AperFunction*%
%TA.AperFunction,Conductor*%
G36*
X141617864Y-91711238D02*
G01*
X141662381Y-91762614D01*
X141669432Y-91777733D01*
X141669432Y-91777734D01*
X141799954Y-91964141D01*
X141960858Y-92125045D01*
X141960861Y-92125047D01*
X142147266Y-92255568D01*
X142353504Y-92351739D01*
X142573308Y-92410635D01*
X142735230Y-92424801D01*
X142799998Y-92430468D01*
X142800000Y-92430468D01*
X142800002Y-92430468D01*
X142856673Y-92425509D01*
X143026692Y-92410635D01*
X143246496Y-92351739D01*
X143322359Y-92316363D01*
X143391431Y-92305872D01*
X143455216Y-92334391D01*
X143493456Y-92392867D01*
X143498288Y-92417938D01*
X143514364Y-92601687D01*
X143514366Y-92601697D01*
X143573258Y-92821488D01*
X143573261Y-92821497D01*
X143669431Y-93027732D01*
X143669432Y-93027734D01*
X143799954Y-93214141D01*
X143960858Y-93375045D01*
X143960861Y-93375047D01*
X144147266Y-93505568D01*
X144353504Y-93601739D01*
X144573308Y-93660635D01*
X144757060Y-93676711D01*
X144822129Y-93702163D01*
X144863108Y-93758754D01*
X144866986Y-93828516D01*
X144858635Y-93852643D01*
X144823263Y-93928497D01*
X144823258Y-93928511D01*
X144764366Y-94148302D01*
X144764364Y-94148313D01*
X144744532Y-94374998D01*
X144744532Y-94375001D01*
X144764364Y-94601686D01*
X144764366Y-94601697D01*
X144823258Y-94821488D01*
X144823261Y-94821497D01*
X144919431Y-95027732D01*
X144919432Y-95027734D01*
X145049954Y-95214141D01*
X145210858Y-95375045D01*
X145210861Y-95375047D01*
X145397266Y-95505568D01*
X145412387Y-95512619D01*
X145464825Y-95558791D01*
X145483976Y-95625985D01*
X145463760Y-95692866D01*
X145412387Y-95737380D01*
X145397270Y-95744430D01*
X145397264Y-95744433D01*
X145210858Y-95874954D01*
X145049954Y-96035858D01*
X144919432Y-96222265D01*
X144919431Y-96222267D01*
X144823261Y-96428502D01*
X144823258Y-96428511D01*
X144764366Y-96648302D01*
X144764364Y-96648313D01*
X144744532Y-96874998D01*
X144744532Y-96875001D01*
X144764364Y-97101686D01*
X144764366Y-97101697D01*
X144823258Y-97321488D01*
X144823260Y-97321492D01*
X144823261Y-97321496D01*
X144858635Y-97397355D01*
X144869127Y-97466433D01*
X144840607Y-97530217D01*
X144782131Y-97568456D01*
X144757061Y-97573288D01*
X144573312Y-97589364D01*
X144573302Y-97589366D01*
X144353511Y-97648258D01*
X144353502Y-97648261D01*
X144147267Y-97744431D01*
X144147265Y-97744432D01*
X143960858Y-97874954D01*
X143799954Y-98035858D01*
X143669432Y-98222265D01*
X143669431Y-98222267D01*
X143573261Y-98428502D01*
X143573258Y-98428511D01*
X143514366Y-98648302D01*
X143514364Y-98648312D01*
X143498288Y-98832061D01*
X143472835Y-98897129D01*
X143416244Y-98938108D01*
X143346482Y-98941986D01*
X143322355Y-98933635D01*
X143283694Y-98915607D01*
X143246496Y-98898261D01*
X143246492Y-98898260D01*
X143246488Y-98898258D01*
X143026697Y-98839366D01*
X143026693Y-98839365D01*
X143026692Y-98839365D01*
X143026691Y-98839364D01*
X143026686Y-98839364D01*
X142800002Y-98819532D01*
X142799998Y-98819532D01*
X142573313Y-98839364D01*
X142573302Y-98839366D01*
X142353511Y-98898258D01*
X142353502Y-98898261D01*
X142147267Y-98994431D01*
X142147265Y-98994432D01*
X141960858Y-99124954D01*
X141799954Y-99285858D01*
X141669433Y-99472264D01*
X141669432Y-99472266D01*
X141662380Y-99487387D01*
X141616209Y-99539825D01*
X141549015Y-99558976D01*
X141482134Y-99538760D01*
X141437619Y-99487387D01*
X141430568Y-99472266D01*
X141300047Y-99285861D01*
X141300045Y-99285858D01*
X141139141Y-99124954D01*
X140952734Y-98994432D01*
X140952732Y-98994431D01*
X140746497Y-98898261D01*
X140746488Y-98898258D01*
X140526697Y-98839366D01*
X140526693Y-98839365D01*
X140526692Y-98839365D01*
X140526691Y-98839364D01*
X140526686Y-98839364D01*
X140300002Y-98819532D01*
X140299998Y-98819532D01*
X140073313Y-98839364D01*
X140073302Y-98839366D01*
X139853511Y-98898258D01*
X139853497Y-98898263D01*
X139777643Y-98933635D01*
X139708566Y-98944127D01*
X139644782Y-98915607D01*
X139606543Y-98857130D01*
X139601711Y-98832060D01*
X139585635Y-98648313D01*
X139585635Y-98648312D01*
X139585635Y-98648308D01*
X139526739Y-98428504D01*
X139430568Y-98222266D01*
X139300047Y-98035861D01*
X139300045Y-98035858D01*
X139139141Y-97874954D01*
X138952734Y-97744432D01*
X138952732Y-97744431D01*
X138746497Y-97648261D01*
X138746488Y-97648258D01*
X138526697Y-97589366D01*
X138526687Y-97589364D01*
X138342938Y-97573288D01*
X138277870Y-97547835D01*
X138236891Y-97491244D01*
X138233013Y-97421482D01*
X138241359Y-97397367D01*
X138276739Y-97321496D01*
X138335635Y-97101692D01*
X138355468Y-96875000D01*
X138335635Y-96648308D01*
X138276739Y-96428504D01*
X138180568Y-96222266D01*
X138050047Y-96035861D01*
X138050045Y-96035858D01*
X137889141Y-95874954D01*
X137702734Y-95744432D01*
X137702730Y-95744430D01*
X137687022Y-95737105D01*
X137634583Y-95690931D01*
X137615433Y-95623737D01*
X137635650Y-95556857D01*
X137687028Y-95512340D01*
X137702481Y-95505134D01*
X137775471Y-95454024D01*
X137096447Y-94775000D01*
X137102661Y-94775000D01*
X137204394Y-94747741D01*
X137295606Y-94695080D01*
X137370080Y-94620606D01*
X137422741Y-94529394D01*
X137450000Y-94427661D01*
X137450000Y-94421447D01*
X138129024Y-95100471D01*
X138180136Y-95027478D01*
X138276264Y-94821331D01*
X138276269Y-94821317D01*
X138335139Y-94601610D01*
X138335141Y-94601599D01*
X138354966Y-94375002D01*
X138354966Y-94374997D01*
X138335141Y-94148400D01*
X138335139Y-94148389D01*
X138276269Y-93928682D01*
X138276266Y-93928673D01*
X138240834Y-93852690D01*
X138230342Y-93783613D01*
X138258861Y-93719829D01*
X138317338Y-93681589D01*
X138342402Y-93676758D01*
X138526692Y-93660635D01*
X138746496Y-93601739D01*
X138952734Y-93505568D01*
X139139139Y-93375047D01*
X139300047Y-93214139D01*
X139430568Y-93027734D01*
X139526739Y-92821496D01*
X139585635Y-92601692D01*
X139601711Y-92417937D01*
X139627163Y-92352870D01*
X139683754Y-92311891D01*
X139753516Y-92308013D01*
X139777638Y-92316362D01*
X139853504Y-92351739D01*
X140073308Y-92410635D01*
X140235230Y-92424801D01*
X140299998Y-92430468D01*
X140300000Y-92430468D01*
X140300002Y-92430468D01*
X140356673Y-92425509D01*
X140526692Y-92410635D01*
X140746496Y-92351739D01*
X140952734Y-92255568D01*
X141139139Y-92125047D01*
X141300047Y-91964139D01*
X141430568Y-91777734D01*
X141437618Y-91762614D01*
X141483789Y-91710176D01*
X141550982Y-91691023D01*
X141617864Y-91711238D01*
G37*
%TD.AperFunction*%
%TD*%
M02*
