M48
; DRILL file {KiCad 8.0.3} date 2024-07-12T14:10:18+0900
; FORMAT={-:-/ absolute / inch / decimal}
; #@! TF.CreationDate,2024-07-12T14:10:18+09:00
; #@! TF.GenerationSoftware,Kicad,Pcbnew,8.0.3
; #@! TF.FileFunction,Plated,1,2,PTH
FMAT,2
INCH
; #@! TA.AperFunction,Plated,PTH,ViaDrill
T1C0.0118
; #@! TA.AperFunction,Plated,PTH,ComponentDrill
T2C0.0300
; #@! TA.AperFunction,Plated,PTH,ComponentDrill
T3C0.0315
; #@! TA.AperFunction,Plated,PTH,ComponentDrill
T4C0.0394
%
G90
G05
T1
X3.345Y-3.625
X3.345Y-3.85
X3.415Y-3.525
X3.42Y-3.68
X3.455Y-3.935
X3.56Y-3.56
X3.58Y-3.69
X3.595Y-3.955
X3.675Y-3.825
X3.75Y-3.97
X3.805Y-3.705
X3.835Y-4.0
X3.86Y-3.865
X4.015Y-3.755
X4.025Y-3.975
X4.065Y-4.06
X4.12Y-3.855
X4.24Y-3.93
X4.34Y-3.8
X4.365Y-4.53
X4.425Y-3.635
X4.45Y-3.94
X4.475Y-3.635
X4.525Y-3.635
X4.575Y-3.635
X4.575Y-4.06
X4.615Y-3.8
X4.625Y-3.635
X4.625Y-4.01
X4.79Y-3.685
X4.845Y-3.495
X4.885Y-3.675
X4.895Y-3.495
X4.945Y-3.495
X4.995Y-3.495
X5.045Y-3.495
X5.085Y-3.64
X5.105Y-3.595
X5.17Y-3.59
X5.175Y-4.03
X5.265Y-3.55
X5.28Y-4.06
X5.285Y-3.815
X5.305Y-3.725
X5.36Y-3.505
X5.45Y-3.465
X5.79Y-3.975
X5.865Y-3.68
X5.875Y-3.885
X5.96Y-4.05
X5.98Y-3.96
X6.17Y-3.92
X6.205Y-3.61
T2
X3.2693Y-3.464
X3.2693Y-4.064
X3.3193Y-3.464
X3.3193Y-4.064
X3.3693Y-3.464
X3.3693Y-4.064
X3.4193Y-3.464
X3.4193Y-4.064
X3.4693Y-3.464
X3.4693Y-4.064
X3.5193Y-3.464
X3.5193Y-4.064
X3.5693Y-3.464
X3.5693Y-4.064
X3.6193Y-3.464
X3.6193Y-4.064
X3.6693Y-3.464
X3.6693Y-4.064
X3.7193Y-3.464
X3.7193Y-4.064
X3.7693Y-3.464
X3.7693Y-4.064
X3.8193Y-3.464
X3.8693Y-3.464
X3.9193Y-3.464
X3.9693Y-3.464
X4.0193Y-3.464
X4.0693Y-3.464
X6.564Y-3.6467
X6.564Y-3.7254
X6.564Y-3.8041
X6.564Y-3.8829
T3
X5.3957Y-3.7156
X5.3957Y-3.814
X5.4449Y-3.6368
X5.4449Y-3.8927
X5.5236Y-3.5876
X5.5236Y-3.9419
X5.622Y-3.5876
X5.622Y-3.9419
X5.7008Y-3.6368
X5.7008Y-3.8927
X5.75Y-3.7156
X5.75Y-3.814
X5.805Y-4.065
X6.105Y-4.065
T4
X6.0093Y-3.7146
X6.0093Y-3.813
M30
